<?xml version="1.0" encoding="UTF-8"?>
<svg id="Layer_2" data-name="Layer 2" xmlns="http://www.w3.org/2000/svg" viewBox="0 0 464.1793 458.4854">
  <defs>
    <style>
      .cls-1 {
        fill: #040404;
      }

      .cls-2 {
        fill: #ea2940;
      }

      .cls-3 {
        fill: #fff;
      }

      .cls-4 {
        fill: #fdf103;
      }
    </style>
  </defs>
  <g id="katman_1" data-name="katman 1">
    <g id="ycGaCr">
      <g>
        <path class="cls-1" d="m287.8361,238.5157c.7678.3862,1.5356.7723,2.3035,1.1585-.7072.2444-1.3985.6269-2.1241.7097-3.4757.397-6.5599-.679-9.42-2.6052-3.5102-2.3641-9.9378-2.2579-12.9349.3874-.6295.5556-1.07,2.4202-.688,2.8264,1.2641,1.3441,1.6713,4.1544,4.5234,3.2939.6501-.1961,1.2419-.5844,1.8625-.8801,4.4071-2.0997,7.5897-1.7316,10.686,1.2345,3.8725,3.7097,5.1721,8.2938,3.1481,12.4958-1.3899,2.8856-.9129,5.1739.76,7.7594.9967,1.5404,1.8398,3.758,1.5425,5.46-1.465,8.3873-4.9177,15.579-12.9716,19.8362-1.6297.8615-3.1956,2.6925-3.8128,4.4249-.9701,2.7227-2.2627,5.0104-4.3415,6.987-1.2019,1.1428-2.6572,2.4477-3.023,3.9217-.3733,1.5041-.1243,4.1686.852,4.8148,3.0475,2.017,4.5333,5.152,6.8195,7.6371,5.4355,5.9082,5.2688,13.177,6.4096,20.2069.1127.6945-.084,1.5315.2371,2.0857,3.6528,6.3043,4.0236,13.3737,4.957,20.3351.2695,2.0098.8202,4.1046,1.7725,5.8752,2.1489,3.9956,1.5258,8.2531,1.5739,12.4289.0525,4.5575,1.0485,8.8627,3.4655,12.6378.8836,1.38,2.8975,2.5079,4.5655,2.8081,2.7628.4972,3.234-.595,2.2422-3.3493-2.7834-7.7302-5.5605-15.4655-8.1301-23.268-.7747-2.3522-1.0019-4.9176-1.2373-7.4083-.6612-6.9951-1.5562-13.9971-1.6543-21.0062-.0655-4.6827.9494-9.4026,1.7119-14.0681.6425-3.9315,1.3578-7.8867,2.5013-11.6932,2.2413-7.4606,5.3192-14.4889,14.2198-15.9296,2.901-.4696,6.1445-.601,8.9102.2092,7.7564,2.272,13.0947,7.2528,17.3161,14.452,3.5929,6.1273,5.2227,12.647,7.5918,19.0742,1.8842,5.1117,3.741,10.2226,3.7521,15.5955.0083,3.9718.7733,7.3594,2.5158,10.8878,1.1843,2.3981,1.407,5.3697,1.6364,8.1202.4785,5.7357-.2392,11.6268,2.8228,16.9587.5305.9238.5674,2.2051.6009,3.3282.2083,7.0002-.8569,14.0226,1.2265,20.991.6801,2.2748-.5047,5.046-.4115,7.5745.0905,2.454.7228,4.8885,1.1269,7.3299.0681.4113.3565.8643.2544,1.2137-1.5029,5.1414.4448,10.084.8077,15.1153.1992,2.7622-1.7549,5.5657-4.957,5.6186-7.0467.1164-14.1051-.4113-21.1566-.7229-.8335-.0368-1.6471-.491-2.4819-.5381-8.0914-.456-16.1861-.8523-24.2781-1.2989-2.1095-.1165-2.9599.2532-3.8623,2.7969-2.1473,6.0528-4.4752,10.4192-13.3323,10.1377-8.4577-.2688-16.7363-1.4138-25.0897-2.474-5.6669-.7192-11.5541.2107-17.3367.5185-4.071.2168-8.1314.8989-12.1969.902-12.9374.01-25.8692.4166-38.6193-3.0293-3.7134-1.0036-8.131-.0231-12.1096.6932-11.1634,2.0099-22.1835,5.0846-33.4167,6.3612-10.804,1.2278-21.8134,1.1351-32.7148.8763-10.0628-.239-20.1251-1.2585-30.142-2.3513-4.9064-.5353-9.7008-2.0598-14.5628-3.0538-2.571-.5256-5.195-.7934-7.7633-1.3298-1.818-.3797-2.6839-1.8681-1.9629-3.4258.3921-.8471,2.0924-1.6771,3.0877-1.5575,4.9943.5999,9.2794-1.5359,13.5205-3.425,9.721-4.3301,19.8391-7.4259,30.1117-9.9795,3.0915-.7686,6.5335-.3712,9.7937-.1677,7.0185.438,14.0143,1.3317,21.0361,1.6011,7.4062.2841,14.8322.08,22.2493.0479,4.7737-.0207,4.8249-.4784,4.7066-5.2579-.118-4.7696.4757-9.5606.8262-14.3372.3882-5.2901,1.0452-10.5673,1.2457-15.8629.3849-10.1641,4.9117-19.0831,8.1582-28.3952,2.5691-7.3693,5.4494-14.6549,7.5407-22.159,2.1271-7.6328,3.7884-15.4353,5.0263-23.2626.8975-5.6748.7624-11.5119,1.1112-17.2752.0587-.9699.1341-1.9592.3771-2.894,1.1092-4.2679.3945-8.3189-1.4177-12.2225-.9781-2.107-2.246-3.984-.9576-6.5816.3751-.7562-.6724-2.6243-1.5453-3.5145-2.3488-2.3953-4.9374-4.5584-7.4643-6.7755-3.1715-2.7827-3.8702-6.746-4.3472-10.494-.236-1.8539,1.2299-4.1014,2.3598-5.8978.9528-1.5147,2.5325-2.6352,4.3953-4.4877-3.7445.5681-6.4887,1.0747-9.2553,1.3752-2.1537.234-2.5413-1.0477-1.4954-2.5748,1.2558-1.8336,2.7258-3.5518,4.291-5.134,1.7863-1.8058,1.7969-3.5244-.0298-5.0931-5.5284-4.7476-10.7109-10.0987-16.8574-13.8595-4.5239-2.7679-10.289-3.664-15.6113-4.9306-6.3152-1.5029-12.7488-2.5077-19.1296-3.7362-.1305-.0251-.2332-.1805-.3649-.2163q-7.4189-2.018-8.087,5.6398c-.5283,6.2054-.8466,12.4047-3.7069,18.1835-2.4958,5.0423-4.9958,9.8792-10.294,12.6904-1.4315.7595-2.2306,2.6489-3.4428,3.9007-1.2188,1.2586-2.4507,3.14-3.9206,3.4069-5.4925.9973-11.1213,2.1911-16.6314,1.9227-8.2553-.4021-16.3868-1.8563-23.8982-6.0866-4.8492-2.731-10.6101-3.5918-15.1498-7.3015-4.2854-3.5019-9.0525-6.4123-13.5786-9.6241-.6866-.4873-1.3841-1.1019-1.7903-1.8196-4.1486-7.3292-8.7413-14.4648-12.1924-22.1135-3.0333-6.7228-3.9151-14.1519-3.6965-21.6338.1624-5.5584.136-11.1265.0258-16.6869-.0498-2.5151-.6005-5.0161-.7621-7.534-.4443-6.9224,1.8451-13.3293,3.6289-19.8772,1.6995-6.2382,2.8066-12.6443,4.0262-19.0049,1.4376-7.4974,3.5784-14.7509,7.2977-21.4419,3.4873-6.2738,5.8595-12.6868,5.844-20.0995-.0074-3.5386,2.0171-7.0765,3.0931-10.6232,3.3022-10.8853,8.1595-21.3104,14.4207-30.5108,6.291-9.2443,14.1229-17.8708,24.4894-23.3005,3.1438-1.6467,6.6722-2.7293,9.4766-4.8089,3.2101-2.3805,6.4819-5.1768,8.5116-8.5284,2.7796-4.5898,7.0112-5.4965,11.4452-6.5613,1.4661-.3521,2.958-.7044,4.4525-.7834.7185-.038,1.7175.3781,2.1227.9308.2815.3839-.14,1.3895-.4133,2.0486-.3951.9528-.9404,1.8432-1.4216,2.7603,1.3.3418,2.6937,1.1753,3.8855.9484,10.6449-2.0265,20.7414.852,30.7389,3.6159,7.505,2.0748,14.6126,5.5836,22.1148,7.6723,10.007,2.786,20.1846,3.9867,30.4164.3438,2.8422-1.0119,6.0867-.834,9.0432-1.6006,3.5399-.9178,6.9486-2.3294,10.4505-3.409,7.0807-2.183,14.0831-4.8001,21.3161-6.2475,5.0849-1.0175,10.5081-.2241,15.7617-.5436,14.3522-.8727,28.0828,2.3971,41.1798,7.4814,9.2142,3.5769,18.3365,7.9597,25.8558,14.9093,4.1476,3.8334,8.9566,6.9471,13.1466,10.7397,6.1825,5.5961,10.8069,12.4319,13.7882,20.2076,2.4052,6.2732,5.3252,12.618,6.1398,19.1646,1.0388,8.3486,3.7583,16.6281.9991,25.475-2.0378,6.5338-2.9422,13.365-6.1116,19.6483-1.7005,3.3712-2.345,7.2664-4.8391,10.3372-3.8599,4.7525-8.5111,8.4653-13.5335,11.998-6.5777,4.6267-13.8767,7.339-21.2353,10.1069-2.1348.803-4.297,1.5335-6.3041,3.0977,6.0643,0,12.129.0348,18.1928-.0226,1.6827-.0159,3.3764-.5055,5.0389-.3925.9568.0651,1.861.9023,2.7889,1.392-.811.8946-1.4715,2.2713-2.4649,2.5813-1.9437.6064-4.0732.6176-6.1257.8751-1.9951.0339-3.9969-.0253-5.9841.1182-7.4504.5381-14.8988,1.1103-22.342,1.7391-2.6523.2241-4.4718-1.9462-3.5668-4.4722.507-1.415,1.0299-2.8316,1.663-4.193,3.3484-7.2004,6.7341-14.3835,10.1068-21.5726,1.191-2.0135,2.382-4.0271,3.573-6.0407.4988.2538.9977.5076,1.4965.7615-2.4558,8.4252-6.6509,16.1706-10.6707,24.261,1.8235,0,3.3455.3499,4.623-.0606,5.5148-1.772,11.0686-3.5061,16.3909-5.7658,4.0098-1.7024,7.7318-4.1106,11.5017-6.3404,2.5799-1.5259,5.236-3.0379,7.486-4.9857,7.1931-6.2271,11.0147-14.4498,13.1924-23.5281.8984-3.7451,2.0421-7.4911,2.384-11.2986.9494-10.5718-1.3335-20.7562-4.4014-30.7979-.5221-1.7089-.5938-3.6202-1.395-5.1681-4.352-8.4083-9.1247-16.3736-16.3035-22.98-9.0831-8.3589-18.7673-15.4223-29.7093-21.2516-13.1426-7.0017-27.125-9.394-41.5524-10.4806-3.6214-.2728-7.3262.3441-10.9753.7212-3.1752.3282-6.45.4956-9.4634,1.433-8.2469,2.5653-16.3758,5.5091-24.5598,8.2782-1.5609.5281-3.1316,1.1615-4.7467,1.3724-7.7581,1.0134-15.5973,1.5436-23.2829,2.9348-6.8943,1.248-13.3337-.6499-19.7083-2.1497-11.7214-2.7577-22.3111-9.0168-34.5118-10.8386-8.1468-1.2165-15.8674-1.1202-23.5072,1.3802-11.9617,3.9149-23.7505,8.4465-33.5542,16.6226-5.7819,4.822-11.3657,10.0169-16.2715,15.7055-3.1886,3.6975-5.4896,8.3894-7.3187,12.982-3.7,9.2901-8.7462,18.0694-10.9337,27.9366-.3281,1.4799-.2999,3.1324-.0318,4.6327.7369,4.1236-.8857,7.8273-4.6143,10.3038-.8435.5602-1.7089,1.3938-2.0802,2.2998-1.0355,2.5264-2.0806,5.1009-2.6447,7.7578-1.236,5.821-1.9602,11.7541-3.2849,17.5521-2.6403,11.5562-5.4108,23.0822-4.8299,35.0596.5715,11.7821,1.3428,23.5546,1.9048,35.3371.2443,5.1221,1.7558,9.7515,4.5822,13.9824,2.3126,3.4618,4.5037,7.0205,7.0395,10.3121,1.7485,2.2696,3.8406,4.3421,6.055,6.1683,2.8536,2.3534,5.975,4.3837,8.9959,6.5323,2.5402,1.8067,4.8675,4.2493,7.6989,5.2452,7.621,2.6806,15.4157,4.9088,23.2287,6.9889,6.231,1.6589,12.6488.7854,17.8103-2.6773,3.4481-2.3132,5.5167-6.6937,9.8094-8.3829.38-.1495.4798-.9643.7492-1.4481,4.2557-7.6427,7.2014-15.6428,6.5807-24.5806-.2031-2.9246-.447-5.8552-.873-8.7536-.6022-4.0984-.8441-8.3616-2.2-12.2167-4.4251-12.5812-8.9785-25.1853-16.6196-36.2709-5.0177-7.2797-10.5084-14.2283-17.6996-19.6169-3.157-2.3656-6.1865-4.9075-9.1947-7.4625-1.4416-1.2244-2.1729-3.0876-.5833-4.3779.8231-.6681,2.74-.1706,4.1086.0875.7456.1407,1.4087.8432,2.0564,1.3584,3.7097,2.9509,7.4432,5.874,11.0855,8.9064,1.7301,1.4404,3.3968,2.9964,4.877,4.6883,2.2083,2.5244,4.3929,5.1007,6.2903,7.8593,3.8497,5.5972,8.1801,11.0074,11.076,17.0838,4.5366,9.519,8.2027,19.4687,11.8987,29.3625,1.0884,2.9135,1.1834,6.2409,1.4638,9.4026.3618,4.0795.6591,4.3422,4.5318,3.9344,1.9481-.2051,3.9991-.1468,5.9195.2255,7.2105,1.3978,14.4204,2.831,21.5633,4.5334,4.7975,1.1434,9.724,2.2368,14.1633,4.2839,7.9832,3.6815,14.6449,9.3429,20.3129,16.0648,1.9106,2.2659,4.3353,2.5345,6.4628,1.4385,4.5189-2.3279,8.8835-4.6363,14.2426-4.0519.6204.0677,1.4317-1.6153,2.1545-2.4866-.7387-.5387-1.4297-1.4499-2.2244-1.5516-3.4666-.4438-6.9592-.7178-10.4498-.9334-8.6548-.5347-15.0582-4.9508-19.3094-12.1243-2.6581-4.4851-4.5444-9.8348-1.937-14.942,2.6285-5.1485,6.0177-9.9421,9.3913-14.6641,1.925-2.6944,2.1815-3.1927-.9324-4.3865-2.9367-1.1258-6.1004-1.6503-9.0638-2.7183-5.1813-1.8674-10.2076-4.1597-15.856-4.4083-3.1489-.1386-4.2186-1.8786-3.0739-4.9136.7183-1.9045,1.9026-3.6294,2.6816-5.5159.8902-2.156,2.6302-1.8565,3.6893-.8534,1.2139,1.1497,1.7336,3.0162,2.6163,4.5356,1.0066,1.7325,1.6837,4.1426,3.2083,4.9871,3.2006,1.7729,6.8246,2.8294,10.3429,3.9696,5.3271,1.7264,10.5196,4.5476,16.4346,2.2717,7.6129-2.9292,15.532-4.287,23.6703-4.6055,4.3352-.1697,8.3318-1.4418,12.2488-3.4977,10.695-5.6137,9.1458-16.9678,3.2798-23.7957-2.9106-3.3879-7.2401-5.5345-10.7941-8.4079-.9023-.7295-1.2939-2.0904-1.9202-3.1612.9104-.3478,1.844-1.0315,2.726-.9704,1.625.1125,3.2586.5453,4.8168,1.0613,1.7755.588,3.4726,1.4128,5.2038,2.1347,5.1578,3.9996,9.0961,8.8179,10.4293,15.4128.1886.9331.6512,1.815.8039,2.7505.3146,1.9279.9765,3.9557.664,5.8016-1.1956,7.0635-5.3982,11.9962-11.8994,14.7973-3.2802,1.4133-6.7321,2.6335-10.2286,3.2899-4.826.9059-9.7944,1.0276-14.652,1.7993-4.6262.735-9.1072,1.7927-13.3541,4.2073-5.3644,3.05-9.1961,7.4155-11.9616,12.5747-1.6116,3.0065-3.0218,7.1037-2.2925,10.1818,1.6295,6.8781,6.7688,11.2082,13.8712,12.292,4.5678.6971,9.294.2999,13.8977.8359,4.0939.4766,8.2844,1.0968,12.1349,2.4809,7.1305,2.563,14.4977,3.765,21.8463,2.9677,6.5489-.7105,12.9163-3.0248,18.787-6.3183.6665-.3739,1.7474-.8065,2.2139-.5213.4938.3018.6791,1.4343.6585,2.1947-.084,3.1029-2.1876,5.1229-5.3859,5.2567-2.4145.101-5.3206-.7-7.1427.3714-3.3954,1.9966-6.8285,2.9058-10.6187,3.2263-.5855.0495-1.5547,1.0829-1.554,1.6602.0052,4.1709,2.7573,7.086,6.8569,7.6255,1.2282.1616,2.4794.4016,3.6318.8384,3.6919,1.3993,6.2714-.0315,8.305-3.0472.5427-.8048.935-1.798,1.6584-2.3775,2.1318-1.7076,4.4449-4.6589,6.5969-4.5825,5.4416.1931,9.798-1.9084,14.2075-4.3398,2.432-1.341,4.6578-1.2899,7.1255.0181,3.7773,2.0021,7.6934,3.7423,11.5507,5.5937Zm-12.0716,211.0342c.0126-.0695.0251-.1391.0377-.2087,1.5677,0,3.1364.0355,4.703-.0066,4.7643-.1279,6.6865-1.4255,7.8766-5.7821.5826-2.1328,1.0118-4.4317.8649-6.612-.2514-3.731-1.0055-7.4285-1.5569-11.1388-1.6939-11.3976-3.3515-22.801-5.1219-34.1867-.3555-2.2865-1.472-4.4766-1.6743-6.761-.6008-6.7835-1.2618-13.495-3.3873-20.0584-.86-2.6558-1.8713-3.7061-4.6009-3.7498-3.4968-.0559-6.9832-.5921-10.4811-.8077-3.309-.204-6.6266-.2737-9.9413-.3758-1.0747-.0331-2.152.0176-3.2281.03.4458-1.1066.7575-2.298,1.3847-3.29.4176-.6605,1.2457-1.1026,1.9582-1.5288,4.0369-2.4147,8.2271-1.9282,12.5873-.9309,2.6785.6126,5.5263.6407,8.2951.6145.902-.0085,2.149-.4866,1.4173-2.351-1.3931-3.5497-2.479-7.2381-3.4416-10.9342-1.3614-5.2278-1.9993-6.1322-7.1654-5.9934-8.2236.221-16.4565.6995-23.202,6.4761-.6769.5797-1.9042.5167-2.876.7519.3252-.9828.3718-2.2331,1.0189-2.9068,6.2664-6.5242,13.8315-10.1647,23.0314-10.0686,1.6972.0177,3.4358-.0913,5.0704-.4899.4337-.1058,1.033-1.8751.7416-2.2536-3.425-4.4492-6.0474-9.5049-10.723-13.0098-6.132-4.5966-15.5815-5.1726-20.8143,1.9903-3.7922,5.1909-4.0403,11.4224-5.2224,17.3637-.9969,5.0104-1.5975,10.0986-2.542,15.1207-.5522,2.9362-1.6598,5.7774-2.0892,8.7237-.282,1.9351.2439,3.9798.3327,5.9787.2692,6.0579-.0165,12.1969.8986,18.1531.8647,5.6279,3.2061,11.0127,4.4626,16.6023.9052,4.0267.8146,8.2293,3.0529,11.991.6909,1.1611.7392,3.3348.1017,4.5159-1.0966,2.0316-3.2664,1.6509-5.2679,1.0002-1.5579-.5064-3.1772-1.1344-4.7754-1.1522-6.7307-.075-13.3863.016-19.8628-2.5833-5.327-2.138-10.9593-3.5092-16.4205-5.3279-.6592-.2195-1.0946-1.1111-1.6337-1.6911.7083-.5542,1.3486-1.2659,2.1473-1.611.6003-.2594,1.4074-.002,2.1168-.0533,6.8466-.496,12.9139,3.0086,19.5068,3.7839,4.0174.4725,8.0468,1.1111,12.0748,1.1414,3.391.0256,4.8098-1.6222,4.3075-4.353-.8706-4.7335-1.6589-9.5204-3.0594-14.1086-1.8715-6.1313-2.2931-12.3213-2.1922-18.6479.0374-2.3451-.5953-4.6944-.6645-7.0493-.1053-3.5819-.4019-7.2325.1226-10.7434,1.1676-7.8156,2.8048-15.5607,4.208-23.3422.0944-.5237.0088-1.4235-.3034-1.6002-.5285-.2992-1.4263-.4051-1.9479-.1465-.7249.3593-1.3116,1.0766-1.844,1.7327-4.3343,5.3423-12.1535,8.1571-18.9231,2.4771-4.9991-4.1945-9.677-18.6043-6.8985-24.2037.1945-.392,1.9082-.5825,2.2543-.2257.6123.6313.9747,1.7519.9893,2.6749.0833,5.261,2.4118,9.6145,5.4312,13.6579,4.8021,6.4306,12.1974,6.1264,16.8879-.3867,1.9183-2.6638,4.3935-4.9319,6.6607-7.3373,1.5931-1.6901,3.7296-3.0527,4.8013-5.0113,2.2491-4.1105,6.2984-5.6958,9.8894-7.9386.6311-.3942,1.7667-.1034,2.6426.037,5.9434.9526,12.0801,3.004,16.7164-3.0731,1.2881-1.6884,3.4905-3.3928,3.5607-5.1579.183-4.5983-.1816-9.1428.9184-13.7616.4825-2.0261-.9228-4.5069-1.4889-6.7768-1.8452-7.3985-6.1128-13.9842-12.3401-17.2947-8.0369-4.2724-17.1488-7.4519-26.799-3.4518-3.5918,1.4888-7.447-1.26-6.123-4.1857,1.3546-2.9934.0688-4.3498-1.6765-6.1716-2.4309-2.5374-5.0463-3.7652-8.7401-4.2337-4.261-.5404-6.7919.8926-9.1341,3.8565-2.3553,2.9806-.2048,5.038,1.2926,7.3877.4935.7744.4924,2.6672-.0534,3.1201-.9166.7607-2.4391.9382-3.73,1.0287-.5141.036-1.0791-.8268-1.6401-1.2554-3.2691-2.4975-6.4333-2.7273-9.7849.041-2.8725,2.3725-6.2081,4.2148-8.9159,6.7443-1.4964,1.3979-3.1585,3.8599-2.933,5.6085.5171,4.0088,2.5632,7.6791,5.9512,10.2023,3.9275,2.925,5.4022,2.6291,9.0679-.7227,1.3955-1.276,3.1558-2.8006,4.8483-2.9307,1.8646-.1433,3.8423,1.1865,5.7707,1.8745-.6749,1.4786-1.0114,3.3063-2.0984,4.3597-1.9736,1.9127-4.3297,3.4628-6.6491,4.9759-1.6464,1.074-3.9912,1.7945-3.3106,4.2138.5639,2.0043,1.5702,4.5524,3.1746,5.4675,4.3688,2.4917,9.2643,2.7041,13.5814-.2378,2.8644-1.9518,5.5165-4.3925,7.7368-7.0538,1.6592-1.9888,3.3167-.9569,4.9038-.741.365.0497.7669,2.3088.5829,3.4602-.6234,3.8996,1.9969,7.537,5.9841,7.2599,3.1193-.2168,6.4841-.76,9.1715-2.2108,2.5155-1.358,4.4108-.8375,6.6405-.1176,1.6847.544,3.3743,1.1038,5.1,1.4814,1.7621.3855,2.5177,1.3456,1.9151,3.0253-.8552,2.384-4.1437,3.4473-6.6611,3.1701-3.6528-.4023-7.5043-.7651-11.0439-.0385-6.0392,1.2398-11.3516,1.1943-15.5701-4.0167-1.6099-1.9886-3.6811-1.5695-5.2448-.2489-4.6609,3.9363-10.1259,4.5575-15.8126,4.1113-2.9628-.2325-4.1324.6007-3.8026,3.6688.4506,4.1907,1.5676,8.6067.7189,12.5661-1.1005,5.1345.1991,9.8257,1.5386,14.2236,3.0461,10.0014,2.8621,19.5381-1.4863,28.9321-3.4341,7.4187-7.0805,14.7025-14.5009,19.2704-1.552.9554-2.5701,3.2503-3.1859,5.1393-.847,2.5982-1.0555,5.4017-1.5754,8.11-1.0671,5.5597-3.2885,10.8567-3.0786,16.7225.1178,3.2926-.9255,6.6125-1.2187,9.9401-.1429,1.6219.1427,3.3042.4033,4.9321.2367,1.4788.9839,2.9159,1.01,4.3802.0592,3.3317,1.3788,6.0781,3.8071,8.1013,2.6302,2.1915,6.0364,3.5716,8.3145,6.0356,2.7897,3.0172,5.7817,2.9901,9.2246,2.3912.7027-.1222,1.4542-.0354,2.1758.0336,6.7164.6426,13.4219,1.4349,20.15,1.9064,3.9072.2739,7.8499.0403,11.7766.0356.4277-.0005.8812.0982,1.2792-.0098,11.0778-3.0065,22.1833-.7459,33.2577-.0657,6.0239.37,12.0078,1.3915,18.0097,2.1192Zm32.0459-118.2225l-.3317-.7287c.8105-.6795,1.5444-1.4905,2.4449-2.016,4.0383-2.3567,8.2541-4.0084,13.1094-3.6259,1.2555.0989,3.4309-.4282,3.6849-1.1765.4129-1.2162-.1827-2.9515-.7675-4.2859-.7735-1.7649-2.2911-3.2414-2.8828-5.0411-1.675-5.0948-5.6168-7.6776-10.0481-9.8834-5.1812-2.579-11.9462-.8228-15.1084,4.0119-2.7051,4.1358-3.6493,8.826-4.5491,13.6075-1.1061,5.878-2.9321,11.6109-2.4758,17.7241.4733,6.3418.5772,12.7137,1.1515,19.0444.3996,4.4044.5848,9.0487,2.1585,13.0814,3.5363,9.0621,7.8042,17.8443,11.9262,26.6695,1.6711,3.5778.1667,6.4753-3.7683,5.9036-2.754-.4001-5.3408-1.966-7.9954-3.0282-.8858-.3544-1.725-.9976-2.6304-1.0962-2.0118-.219-3.0335.4103-1.859,2.6648.7667,1.4717,1.5478,3.0536,1.7798,4.6644.7576,5.2605,1.2697,10.5566,1.8698,15.8397.5707,5.0237,3.4826,9.5955,6.956,10.0776,5.6845.789,11.4123,1.3465,17.1402,1.7188,4.8822.3173,9.7694-.1697,14.5552,1.6749,2.3955.9232,5.2317.8621,7.8775.9387,3.5976.1042,4.22-.6701,4.0466-4.1359-.3408-6.8118-.862-13.6216-.9579-20.4371-.135-9.5935-.3301-19.1465-2.304-28.6003-.8786-4.2079-1.0174-8.5668-1.8206-12.7947-.947-4.985-2.3694-9.8784-3.3661-14.8555-1.0688-5.3375-1.272-5.6227-6.7587-5.6384-3.2785-.0094-6.5596.0438-9.8334-.085-.747-.0294-1.8308-.5341-2.0879-1.1166-.2056-.4659.4554-1.5345.9944-2.0726,3.1504-3.1443,6.9793-2.6097,10.6739-1.5082,4.0163,1.1974,5.9888.0377,5.1335-3.9518-.8005-3.7339-2.3229-7.3361-3.7937-10.886-.3331-.8039-1.7506-1.6028-2.6947-1.6344-4.7772-.1601-9.5655-.1554-14.3441-.0141-1.7166.0508-3.417.6449-5.1249.9911Zm-198.8631,105.6113c-6.8038-1.022-13.0289,1.2705-19.198,3.4816-6.5997,2.3655-13.0906,5.0376-19.5965,7.6567-.6262.2521-1.0226,1.0749-1.5256,1.6327.694.419,1.3514,1.1181,2.0877,1.2145,8.7003,1.1389,17.3948,2.3721,26.1264,3.2091,8.9881.8616,18.0076,1.5867,27.0284,1.8438,5.4588.1555,10.9648-.5269,16.4147-1.142,4.1291-.4661,8.1954-1.4681,12.3047-2.1394,2.2425-.3663,3.0006-1.1479,1.5734-3.3011-1.6195-2.4433-2.5792-4.9142.9169-6.8022.4496-.2428.885-1.4394.6712-1.7693-.3357-.5179-1.2135-.8994-1.8895-.9476-5.0532-.3601-10.1152-.5931-15.1706-.9248-9.9157-.6505-19.8289-1.3392-29.7431-2.012Zm146.1438-193.982c-.9865,0-1.7963-.2443-2.0863.0405-1.6308,1.6013-3.3702,3.1936-4.4978,5.1245-.2406.412,1.7442,2.4214,2.9763,3.3219,1.6337,1.1939,3.7386,1.7739,5.2879,3.0473,8.5776,7.05,12.6128,16.6247,14.6433,27.2161.6464,3.3716,1.5195,3.773,4.7065,2.4329,4.0052-1.684,4.8506-5.5518,6.384-8.8497,1.521-3.271,1.0601-6.5535-1.9571-8.9567-2.752-2.1919-2.8405-4.4663-.9205-7.2692,2.4417-3.5645,1.1929-7.0918-1.0954-10.0308-.8943-1.1486-3.2071-1.7387-4.7963-1.6118-1.089.087-2.2109,1.7389-2.9984,2.9067-.4986.7393-.1137,2.1145-.6513,2.778-.8694,1.0728-2.0833,2.0261-3.3503,2.5122-.3443.132-1.5568-1.5074-2.0925-2.4861-.7248-1.3241-.8969-3.0241-1.8096-4.1573-2.1604-2.682-3.393-6.8133-7.7424-6.0185ZM92.0285,15.1864c-.5809-.8337-.7241-1.2439-1.0103-1.4157-1.4874-.8923-6.8826,2.1365-6.9794,3.9328-.0166.3076.5088.9366.5602.9137,2.4179-1.0738,4.811-2.2034,7.4295-3.4309Z"/>
        <path class="cls-4" d="m287.1493,144.2373c-3.3727,7.1891-6.7584,14.3722-10.1068,21.5726-.6331,1.3614-1.156,2.778-1.663,4.193-.905,2.526.9145,4.6963,3.5668,4.4722,7.4433-.6288,14.8916-1.201,22.342-1.7391,1.9872-.1435,3.989-.0843,5.9841-.1182-.0377.2774.0293.6591-.1282.817-4.8569,4.8695-3.8402,10.7278-2.8813,16.6032.075.4593-.3562,1.0012-.5522,1.5047-1.5258-.5804-3.019-1.2784-4.5852-1.7135-2.3446-.6513-4.7218-1.2542-7.1254-1.5836-.7692-.1054-1.6662.7215-2.5047,1.1219.4696.7991.7497,2.0214,1.4389,2.3299,5.354,2.3969,10.787,4.6175,16.1955,6.8927-.0465.5605.1125,1.2724-.1715,1.6579-2.6816,3.64-1.7286,7.7497-1.6292,11.7516-3.2702.0419-6.5578.3098-9.8058.0609-3.133-.24-6.2252-1.0133-9.3353-1.5523,1.5469,3.0014,3.3871,5.0081,6.5476,5.0526,3,.0423,5.9994.1204,8.999.1828-.8449,3.0376-4.5867,4.9121-3.4776,8.7478.3782,1.3079.6128,2.6574.9131,3.9878-5.6089,2.0574-11.007,1.1216-16.3102-1.1506-1.143-.4898-2.2512-1.1059-3.4397-1.424-.5496-.1471-1.2536.2825-1.8876.4507.3141.5816.4931,1.5063.9632,1.6912,4.2408,1.6679,8.5327,3.2061,12.8096,4.7824-1.1565,1.8955-2.3131,3.7911-3.4696,5.6866-3.8572-1.8514-7.7734-3.5916-11.5507-5.5937-2.4676-1.3079-4.6935-1.3591-7.1255-.0181-4.4095,2.4314-8.766,4.5329-14.2075,4.3398-2.152-.0764-4.4651,2.875-6.5969,4.5825-.7235.5795-1.1158,1.5727-1.6584,2.3775-2.0335,3.0157-4.613,4.4465-8.305,3.0472-1.1524-.4368-2.4036-.6768-3.6318-.8384-4.0996-.5395-6.8517-3.4546-6.8569-7.6255-.0007-.5774.9684-1.6107,1.554-1.6602,3.7903-.3204,7.2233-1.2297,10.6187-3.2263,1.8221-1.0715,4.7282-.2704,7.1427-.3714,3.1983-.1338,5.3018-2.1538,5.3859-5.2567.0206-.7604-.1647-1.8929-.6585-2.1947-.4665-.2852-1.5474.1474-2.2139.5213-5.8707,3.2935-12.2381,5.6078-18.787,6.3183-7.3486.7973-14.7158-.4048-21.8463-2.9677-3.8505-1.384-8.0409-2.0042-12.1349-2.4809-4.6037-.536-9.3298-.1388-13.8977-.8359-7.1024-1.0838-12.2416-5.414-13.8712-12.292-.7293-3.0782.6809-7.1754,2.2925-10.1818,2.7655-5.1592,6.5972-9.5247,11.9616-12.5747,4.2468-2.4146,8.7278-3.4723,13.3541-4.2073,4.8575-.7717,9.8259-.8934,14.652-1.7993,3.4965-.6563,6.9484-1.8766,10.2286-3.2899,6.5012-2.8011,10.7037-7.7338,11.8994-14.7973.3125-1.846-.3494-3.8737-.664-5.8016-.1527-.9355-.6152-1.8173-.8039-2.7505-1.3331-6.5949-5.2715-11.4132-10.4293-15.4128.476-.2401.9281-.6045,1.4316-.7014,6.2043-1.1939,11.6931-3.8457,16.4711-7.975.3348,3.929.3332,7.9243,1.09,11.7703.9318,4.7354,2.1273,9.5311,5.5067,13.273.9475,1.0492,1.8203,3.3088,3.914,1.6229,2.0242-1.6298-.2911-2.5812-.7767-3.8192-.0998-.2545-.0234-.5834-.1378-.8264-3.1001-6.5857-4.0145-13.6917-4.9699-20.7884,8.1523.9826,15.5286-.8238,21.9389-6.1026-.2398,3.3528-.3942,6.7144-.7395,10.0563-.5021,4.8592-1.541,9.6987-1.6084,14.557-.0646,4.6615,4.8864,7.6575,8.5335,5.6296.6764-.3761,1.4686-1.1884,1.5188-1.8515.0437-.5762-.8476-1.7207-1.3929-1.7638-3.6801-.2908-3.7138-3.0185-3.8114-5.5647-.2212-5.7706.5132-11.4067,2.9001-16.7405,4.6007,3.803,8.2618,9.1425,15.133,9.2548.1577.0026.3082.4441.4621.6809Zm-64.4654,44.1137c-.0597-.305-.1194-.61-.1791-.9149-3.3367.816-6.7131,1.5076-9.9781,2.5487-.6863.2188-.9629,1.722-1.4283,2.6333.9909.4924,1.976,1.383,2.9737,1.3973,2.3467.0337,4.6988-.5148,7.0498-.5231,2.6544-.0094,5.3081.4003,7.9658.4577,1.3464.0291,2.813.1369,3.0584-2.0178.254-2.2293-.9158-3.2805-2.6643-3.5102-2.2306-.293-4.5288-.0711-6.7979-.0711Zm20.0549-.1381c-3.864-.0897-5.0129,1.2352-3.5372,3.1419,3.2586,4.2103,6.8648,8.1522,10.3425,12.1921,1.815,2.1084,3.4789.0473,4.8163-.5709,1.8579-.8587.1738-2.0526-.5085-3.0047-.4846-.6762-.941-1.3798-1.4875-2.0033-2.2755-2.5957-4.5179-5.2254-6.9045-7.7161-.9817-1.0245-2.2971-1.7294-2.721-2.0391Z"/>
        <path class="cls-1" d="m464.1228,146.9908c-.1637,4.5152-1.2539,7.4766-3.0376,10.6652-4.2966,7.6805-7.7021,15.8645-11.3353,23.9049-.4914,1.0877.0411,2.6154-.3795,3.7639-.484,1.3216-1.5005,2.4481-2.2857,3.6594-.9158-.8055-2.0484-1.4656-2.7049-2.4448-1.6758-2.4997-2.9901-5.2467-4.7188-7.705-3.5311-5.0213-9.5372-6.4299-14.4013-9.5104-3.7471-2.3731-7.4933-4.6091-10.2997-8.2784-2.892-3.7812-2.3549-8.2438-2.9557-12.3762-.437-3.0055,6.9-7.9708,10.5609-8.5265,4.4727-.6789,7.7526,1.8871,11.307,3.603,2.7289,1.3173,4.0916.4855,5.3896-1.8872,3.9661-7.2498,11.886-8.9874,18.9248-4.522,4.0301,2.5567,6.3949,5.7506,5.9362,9.6541Zm-42.7286-.3427c-1.8677.2634-2.9426,1.5218-2.6951,3.6948.2071,1.8179.2279,3.7404.8783,5.4026.7514,1.9201,1.7294,4.0781,3.2708,5.294,3.151,2.4856,6.9627,4.1377,10.0941,6.6431,3.038,2.4307,7.3691,2.8924,9.495,6.7712.9319,1.7004,4.0472.4654,4.9599-1.7183,2.4891-5.9558,4.9835-11.9106,7.5893-17.8157.6834-1.5486,2.062-2.8135,2.6269-4.3863,1.0972-3.0543-1.4733-5.2838-3.064-6.8446-1.4595-1.4321-4.7225-1.7421-7.0181-1.397-2.1145.3179-3.4546,2.166-3.3124,5.0417.1278,2.587-.7727,5.3184-1.6493,7.8366-1.0015,2.8772-3.66,3.7031-6.1413,2.0357-1.3873-.9323-3.0381-2.0944-3.5938-3.5307-2.0365-5.2636-5.4944-7.8812-11.4403-7.0272Z"/>
        <path class="cls-1" d="m395.6582,200.8027c5.0551-.069,6.4049,4.0467,8.3767,7.3106.6126,1.014.6986,2.3477,1.0178,3.5372.619,2.3068,2.3522,2.9723,4.3377,1.6177,1.2569-.8576,2.3654-1.9886,3.7107-2.6514,9.0147-4.441,15.4027-.8845,19.4626,6.8204,1.3825,2.6238.9843,5.791-.7805,8.4912-3.8198,5.8442-8.7882,10.5668-14.5089,14.4734-6.5847,4.4966-13.2879,8.8199-19.9516,13.2004-2.3799,1.5644-4.3126.8145-5.2117-1.8821-2.9868-8.9579-6.0832-17.8799-8.9955-26.8617-3.2243-9.9441.8031-17.9194,8.966-23.2389.9613-.6265,2.3735-.5613,3.5767-.8168Zm-7.5911,23.1057c.2222,4.4154,1.3699,6.2334,3.5899,10.3719,1.7655,3.2912,2.4978,7.1315,3.7408,10.71.8149,2.3461,1.8615,2.4513,3.877.9721,4.2854-3.1451,8.4144-6.6981,13.1355-9.0018,5.0761-2.4769,8.3416-6.5487,11.8252-10.5145,2.8958-3.2968,2.7543-7.1372.1077-9.8594-2.5559-2.6289-7.4217-2.7728-10.4708-.029-1.533,1.3794-2.7848,3.1458-3.8875,4.9099-1.3771,2.203-2.969,4.1107-5.747,3.298-2.3224-.6794-3.1193-2.6229-3.6435-5.1423-.8164-3.9235-2.6673-7.6217-3.9091-11.4704-.7866-2.4379-2.7459-1.8548-4.1906-1.5561-1.0578.2187-2.0793,1.4267-2.7585,2.4351-.6876,1.0207-1.2587,2.3252-1.3073,3.5286-.1042,2.5768-3.6569,5.4389.478,7.7893.1578.0897-.0752.9608-.2069,1.4458-.2797,1.0307-.6127,2.0468-.6328,2.1128Z"/>
        <path class="cls-1" d="m128.071,0c1.9866,1.0808,4.1294,1.9543,5.9163,3.3001,1.8211,1.3716,3.428,3.1008,4.8426,4.8986.495.629.5383,2.2902.0589,2.8174-.4739.5211-2.0235.5518-2.829.1906-2.2439-1.0063-4.2707-2.5017-6.5233-3.4822-3.1338-1.3642-6.3601-1.9455-9.565.089-.3135.199-1.5085-.3492-1.7259-.8155-.2296-.4925.007-1.688.4096-1.9119,2.9209-1.6244,5.0683-4.9029,9.4157-5.086Z"/>
        <path class="cls-1" d="m307.1298,198.5902c-5.4085-2.2752-10.8415-4.4959-16.1955-6.8927-.6892-.3086-.9693-1.5309-1.4389-2.3299.8385-.4004,1.7355-1.2273,2.5047-1.1219,2.4036.3294,4.7809.9323,7.1254,1.5836,1.5662.4351,3.0594,1.1331,4.5852,1.7135,2.4329,1.6567,4.8688,3.309,7.2961,4.9738.5002.3431.9681.7331,1.451,1.1014-.6662.2776-1.3109.6949-2.0034.8009-1.0914.1671-2.2148.125-3.3246.1714Z"/>
        <path class="cls-1" d="m291.3057,232.8291c-4.2769-1.5763-8.5688-3.1145-12.8096-4.7824-.4701-.1849-.6492-1.1096-.9632-1.6912.634-.1682,1.338-.5978,1.8876-.4507,1.1885.318,2.2967.9342,3.4397,1.424,5.3032,2.2723,10.7013,3.208,16.3102,1.1506,1.6936.759,3.3872,1.5181,4.9473,2.2173-1.0811,1.1991-9.6472,2.8346-12.8118,2.1325Z"/>
        <path class="cls-1" d="m301.7348,215.7438c-2.9997-.0624-5.9991-.1405-8.999-.1828-3.1606-.0445-5.0008-2.0512-6.5476-5.0526,3.1101.539,6.2023,1.3123,9.3353,1.5523,3.2479.2488,6.5355-.019,9.8058-.0609.9806.0513,1.9944-.0343,2.9321.1934.8869.2153,1.694.7595,2.5362,1.159-.7904.6464-1.5072,1.7001-2.3857,1.8588-2.1864.3948-4.4465.382-6.677.5329Z"/>
        <path class="cls-3" d="m239.5888,134.8493c-4.778,4.1294-10.2667,6.7812-16.4711,7.975-.5035.0969-.9556.4613-1.4316.7014-1.7312-.7219-3.4283-1.5467-5.2038-2.1347-1.5583-.516-3.1918-.9488-4.8168-1.0613-.882-.0611-1.8157.6227-2.726.9704.6263,1.0708,1.0179,2.4317,1.9202,3.1612,3.554,2.8734,7.8835,5.02,10.7941,8.4079,5.866,6.8279,7.4151,18.182-3.2798,23.7957-3.917,2.056-7.9136,3.3281-12.2488,3.4977-8.1383.3185-16.0574,1.6764-23.6703,4.6055-5.915,2.2759-11.1075-.5453-16.4346-2.2717-3.5184-1.1402-7.1424-2.1967-10.3429-3.9696-1.5246-.8445-2.2017-3.2546-3.2083-4.9871-.8827-1.5194-1.4024-3.3859-2.6163-4.5356-1.0591-1.003-2.7991-1.3026-3.6893.8534-.7789,1.8865-1.9633,3.6114-2.6816,5.5159-1.1447,3.035-.075,4.7751,3.0739,4.9136,5.6484.2485,10.6747,2.5409,15.856,4.4083,2.9633,1.068,6.127,1.5925,9.0638,2.7183,3.1139,1.1937,2.8574,1.692.9324,4.3865-3.3737,4.7221-6.7628,9.5156-9.3913,14.6641-2.6075,5.1072-.7211,10.4569,1.937,14.942,4.2513,7.1735,10.6546,11.5896,19.3094,12.1243,3.4906.2156,6.9832.4896,10.4498.9334.7947.1017,1.4857,1.0129,2.2244,1.5516-.7228.8713-1.5341,2.5543-2.1545,2.4866-5.3591-.5843-9.7237,1.724-14.2426,4.0519-2.1275,1.096-4.5522.8274-6.4628-1.4385-5.668-6.7219-12.3297-12.3833-20.3129-16.0648-4.4392-2.0471-9.3658-3.1405-14.1633-4.2839-7.1429-1.7024-14.3528-3.1356-21.5633-4.5334-1.9205-.3723-3.9714-.4306-5.9195-.2255-3.8727.4078-4.17.1452-4.5318-3.9344-.2804-3.1617-.3754-6.4891-1.4638-9.4026-3.696-9.8938-7.3622-19.8435-11.8987-29.3625-2.8959-6.0764-7.2263-11.4866-11.076-17.0838-1.8974-2.7587-4.0819-5.335-6.2903-7.8593-1.4801-1.6919-3.1469-3.2479-4.877-4.6883-3.6423-3.0324-7.3758-5.9555-11.0855-8.9064-.6477-.5152-1.3107-1.2178-2.0564-1.3584-1.3686-.2581-3.2855-.7556-4.1086-.0875-1.5896,1.2903-.8584,3.1534.5833,4.3779,3.0082,2.555,6.0377,5.0969,9.1947,7.4625,7.1912,5.3885,12.6819,12.3372,17.6996,19.6169,7.6411,11.0856,12.1944,23.6896,16.6196,36.2709,1.3559,3.8551,1.5978,8.1184,2.2,12.2167.4259,2.8984.6698,5.829.873,8.7536.6207,8.9377-2.3251,16.9379-6.5807,24.5806-.2694.4838-.3693,1.2985-.7492,1.4481-4.2927,1.6892-6.3613,6.0697-9.8094,8.3829-5.1615,3.4627-11.5793,4.3362-17.8103,2.6773-7.813-2.0801-15.6077-4.3083-23.2287-6.9889-2.8314-.9959-5.1587-3.4385-7.6989-5.2452-3.0209-2.1486-6.1423-4.1789-8.9959-6.5323-2.2144-1.8262-4.3065-3.8987-6.055-6.1683-2.5359-3.2916-4.7269-6.8503-7.0395-10.3121-2.8264-4.2309-4.3379-8.8603-4.5822-13.9824-.562-11.7825-1.3333-23.5549-1.9048-35.3371-.581-11.9775,2.1896-23.5034,4.8299-35.0596,1.3247-5.7979,2.0489-11.7311,3.2849-17.5521.5641-2.6568,1.6093-5.2313,2.6447-7.7578.3713-.906,1.2367-1.7396,2.0802-2.2998,3.7286-2.4765,5.3513-6.1802,4.6143-10.3038-.2681-1.5003-.2963-3.1528.0318-4.6327,2.1875-9.8672,7.2336-18.6465,10.9337-27.9366,1.8291-4.5926,4.13-9.2845,7.3187-12.982,4.9058-5.6886,10.4896-10.8835,16.2715-15.7055,9.8037-8.1761,21.5924-12.7077,33.5542-16.6226,7.6398-2.5004,15.3605-2.5967,23.5072-1.3802,12.2007,1.8218,22.7904,8.081,34.5118,10.8386,6.3747,1.4998,12.8141,3.3976,19.7083,2.1497,7.6856-1.3912,15.5247-1.9214,23.2829-2.9348,1.615-.211,3.1858-.8443,4.7467-1.3724,8.184-2.7691,16.3129-5.7129,24.5598-8.2782,3.0134-.9374,6.2882-1.1048,9.4634-1.433,3.649-.3771,7.3539-.994,10.9753-.7212,14.4275,1.0866,28.4098,3.4789,41.5524,10.4806,10.942,5.8293,20.6262,12.8927,29.7093,21.2516,7.1787,6.6064,11.9515,14.5717,16.3035,22.98.8012,1.548.8729,3.4592,1.395,5.1681,3.0679,10.0417,5.3508,20.2261,4.4014,30.7979-.3419,3.8075-1.4856,7.5534-2.384,11.2986-2.1777,9.0783-5.9993,17.301-13.1924,23.5281-2.25,1.9478-4.906,3.4598-7.486,4.9857-3.7699,2.2297-7.4919,4.6379-11.5017,6.3404-5.3223,2.2596-10.8762,3.9938-16.3909,5.7658-1.2776.4105-2.7996.0606-4.623.0606,4.0198-8.0904,8.215-15.8358,10.6707-24.261-.4988-.2538-.9977-.5076-1.4965-.7615-1.191,2.0135-2.382,4.0271-3.5729,6.0407-.1539-.2368-.3044-.6783-.4621-.6809-6.8712-.1123-10.5323-5.4519-15.133-9.2548-.3368-3.5626-.5971-7.1355-1.0711-10.6797-.1022-.7639-.9748-1.4247-1.4925-2.133-.5894.6738-1.507,1.2636-1.7051,2.0375-.5397,2.1093-.7755,4.2964-1.1317,6.4528-6.4103,5.2788-13.7866,7.0852-21.9389,6.1026-.4588-1.4208-.7523-2.9287-1.4382-4.2297-.4122-.7819-1.4363-1.2413-2.1854-1.8457-.5361.9752-1.2244,1.9036-1.5448,2.9451-.1622.5272.3402,1.2588.5422,1.8979ZM13.2822,187.9357c.9025,5.1702,1.9795,11.3082,3.0431,17.4486.4439,2.5627.3169,5.3941,1.4082,7.637,1.8882,3.8808,1.8468,8.8259,6.0587,11.5267.5982.3836.7678,1.4182,1.1649,2.1352,3.4173,6.1705,7.884,11.4523,13.6935,15.4671,7.325,5.0621,15.7848,7.6392,24.1587,10.1826,6.8539,2.0817,13.668,1.9085,19.8812-2.6679,6.7675-4.9847,10.0409-12.4779,8.5163-19.7303-1.9088-9.0796-2.1563-18.5628-6.1271-27.3696-2.8268-6.2697-3.4123-13.5152-5.4321-20.1939-1.6723-5.5297-3.021-11.3892-8.3346-15.0022-.5817-.3955-.7533-1.4083-1.0912-2.1457-3.0465-6.6479-5.4764-13.7093-13.2834-16.6774-1.696-.6448-3.0841-3.5758-4.9363-1.9753-1.0447.9027-.4514,3.7151-.5593,5.6693-.0141.2549.31.5388.2755.7804-.1552,1.0859-.3833,2.1614-.5852,3.2407-.7487-.7298-1.8078-1.3253-2.1919-2.2129-1.5751-3.6402-2.7834-7.4439-4.4453-11.0402-1.1362-2.4586-6.4757-4.3038-8.3579-2.5835-1.0841.9909-.5609,3.7565-.7152,5.7269-.0187.239.357.4962.3672.7522.0955,2.4184.2404,4.8418.147,7.2551-.0198.5112-.9518.987-1.4635,1.4792-.339-.4991-.9237-.9753-.9724-1.5013-.17-1.8343-.1307-3.6868-.215-5.5304-.136-2.9776-.1486-5.9752-.5494-8.9186-.1395-1.024-1.1604-2.5986-1.9781-2.7361-2.6327-.4428-5.248-.3572-6.8729,2.5831-3.5383,6.4025-7.6896,12.2801-7.7949,20.2908-.1181,8.985-1.7236,17.9504-2.8087,28.1106Zm223.2231-87.6359c7.4992-.8369,13.234-1.2068,18.8528-2.2193,2.7609-.4975,5.3625-2.0753,7.9362-3.3639,3.1036-1.5539,5.433-8.7972,4.3656-12.0147-1.9251-5.803-8.966-10.9212-15.2181-10.9365-3.1342-.0077-6.3339-.3868-9.3901.1067-8.069,1.3029-16.2789,2.3122-22.3053,8.9905-4.2481,4.7076-3.8072,11.997,1.8589,14.7395,4.8543,2.3496,10.2814,3.516,13.9,4.6979Zm-135.1881-21.6519c.9911-.4218,2.466-1.1727,4.0189-1.6896,7.8644-2.6174,15.5849-5.4418,21.9284-11.1236,1.3625-1.2204,3.4073-1.6541,5.0742-2.5664,2.0521-1.123,4.228-2.1478,5.9694-3.655.8371-.7245,1.1086-2.4854,1.0037-3.7234-.0409-.483-1.7921-1.0666-2.8114-1.1795-4.8505-.5371-8.8365,1.7975-12.7394,4.1846-5.0358,3.08-10.0276,6.2346-14.9798,9.4474-3.4147,2.2153-7.5987,3.2934-9.6941,7.4589-1.1987,2.3829-.4333,2.7315,2.23,2.8466Zm84.8197-20.5242c1.4223,0,2.845-.0218,4.2668.0051,2.1252.0403,3.8497-1.0114,3.8978-2.9949.0477-1.9641-1.5409-2.9391-3.7273-3.1283-2.8748-.2488-5.6885-1.1729-8.5632-1.4613-8.2545-.8283-16.5206-1.5755-24.798-2.1055-1.2431-.0796-2.5718,1.1766-3.8608,1.8149.9636,1.187,1.6997,2.951,2.9387,3.4395,2.4801.9777,5.3915.8803,7.8478,1.8964,7.135,2.9516,14.7802.7839,21.9982,2.5341Z"/>
        <path class="cls-3" d="m275.7644,449.5499c-6.0019-.7276-11.9858-1.7492-18.0097-2.1192-11.0744-.6802-22.1799-2.9408-33.2577.0657-.3979.108-.8515.0092-1.2792.0098-3.9267.0048-7.8694.2383-11.7766-.0356-6.7281-.4715-13.4336-1.2638-20.15-1.9064-.7215-.069-1.4731-.1558-2.1758-.0336-3.4429.5988-6.4349.626-9.2246-2.3912-2.2782-2.464-5.6843-3.8441-8.3145-6.0356-2.4283-2.0232-3.7479-4.7696-3.8071-8.1013-.026-1.4643-.7733-2.9015-1.01-4.3802-.2606-1.6279-.5462-3.3103-.4033-4.9321.2932-3.3276,1.3365-6.6475,1.2187-9.9401-.2099-5.8658,2.0115-11.1628,3.0786-16.7225.5198-2.7083.7283-5.5118,1.5754-8.11.6158-1.889,1.6339-4.1839,3.1859-5.1393,7.4203-4.5679,11.0668-11.8517,14.5009-19.2704,4.3485-9.394,4.5325-18.9307,1.4863-28.9321-1.3395-4.3979-2.6391-9.0891-1.5386-14.2236.8487-3.9594-.2684-8.3754-.7189-12.5661-.3299-3.0681.8397-3.9013,3.8026-3.6688,5.6866.4461,11.1517-.175,15.8126-4.1113,1.5637-1.3206,3.635-1.7398,5.2448.2489,4.2185,5.211,9.5309,5.2565,15.5701,4.0167,3.5396-.7266,7.3911-.3638,11.0439.0385,2.5174.2773,5.8059-.7861,6.6611-3.1701.6026-1.6798-.153-2.6398-1.9151-3.0253-1.7258-.3776-3.4153-.9374-5.1-1.4814-2.2297-.7199-4.1251-1.2404-6.6405.1176-2.6874,1.4508-6.0522,1.994-9.1715,2.2108-3.9872.2771-6.6075-3.3603-5.9841-7.2599.184-1.1514-.218-3.4106-.5829-3.4602-1.5871-.2159-3.2445-1.2477-4.9038.741-2.2203,2.6613-4.8724,5.102-7.7368,7.0538-4.3171,2.9419-9.2126,2.7295-13.5814.2378-1.6044-.915-2.6107-3.4631-3.1746-5.4675-.6806-2.4192,1.6642-3.1397,3.3106-4.2138,2.3194-1.5131,4.6755-3.0632,6.6491-4.9759,1.087-1.0534,1.4235-2.8811,2.0984-4.3597-1.9284-.688-3.9062-2.0178-5.7707-1.8745-1.6925.13-3.4528,1.6547-4.8483,2.9307-3.6657,3.3518-5.1404,3.6477-9.0679.7227-3.388-2.5232-5.4341-6.1934-5.9512-10.2023-.2255-1.7485,1.4366-4.2106,2.933-5.6085,2.7078-2.5295,6.0435-4.3717,8.9159-6.7443,3.3516-2.7683,6.5158-2.5385,9.7849-.041.561.4286,1.1259,1.2914,1.6401,1.2554,1.2909-.0905,2.8135-.268,3.73-1.0287.5457-.4529.5468-2.3458.0534-3.1201-1.4975-2.3497-3.6479-4.4071-1.2926-7.3877,2.3421-2.9639,4.8731-4.397,9.1341-3.8565,3.6939.4685,6.3092,1.6962,8.7401,4.2337,1.7454,1.8219,3.0312,3.1782,1.6765,6.1716-1.324,2.9257,2.5312,5.6745,6.123,4.1857,9.6502-4.0001,18.7621-.8206,26.799,3.4518,6.2273,3.3105,10.4949,9.8962,12.3401,17.2947.5661,2.2699,1.9714,4.7506,1.4889,6.7768-1.1,4.6188-.7354,9.1632-.9184,13.7616-.0702,1.7652-2.2726,3.4695-3.5607,5.1579-4.6363,6.0771-10.773,4.0257-16.7164,3.0731-.876-.1404-2.0115-.4311-2.6426-.037-3.591,2.2427-7.6403,3.8281-9.8894,7.9386-1.0717,1.9586-3.2082,3.3212-4.8013,5.0113-2.2672,2.4054-4.7424,4.6735-6.6607,7.3373-4.6905,6.5131-12.0858,6.8173-16.8879.3867-3.0194-4.0434-5.3478-8.3969-5.4312-13.6579-.0146-.923-.3771-2.0435-.9893-2.6749-.3461-.3569-2.0597-.1663-2.2543.2257-2.7784,5.5993,1.8994,20.0091,6.8985,24.2037,6.7696,5.68,14.5888,2.8652,18.9231-2.4771.5323-.6561,1.119-1.3734,1.844-1.7327.5216-.2585,1.4194-.1526,1.9479.1465.3122.1767.3978,1.0765.3034,1.6002-1.4031,7.7815-3.0403,15.5266-4.208,23.3422-.5245,3.5109-.2279,7.1615-.1226,10.7434.0693,2.3549.7019,4.7041.6645,7.0493-.1008,6.3266.3208,12.5166,2.1922,18.6479,1.4005,4.5882,2.1888,9.3752,3.0594,14.1086.5023,2.7308-.9165,4.3786-4.3075,4.353-4.028-.0303-8.0574-.669-12.0748-1.1414-6.5929-.7753-12.6602-4.2799-19.5068-3.7839-.7094.0514-1.5164-.206-2.1168.0533-.7987.3451-1.439,1.0568-2.1473,1.611.5391.5801.9745,1.4716,1.6337,1.6911,5.4611,1.8187,11.0934,3.1899,16.4205,5.3279,6.4765,2.5994,13.1321,2.5083,19.8628,2.5833,1.5982.0178,3.2175.6458,4.7754,1.1522,2.0015.6506,4.1713,1.0313,5.2679-1.0002.6375-1.1811.5892-3.3547-.1017-4.5159-2.2383-3.7617-2.1478-7.9643-3.0529-11.991-1.2565-5.5896-3.5979-10.9744-4.4626-16.6023-.9151-5.9562-.6294-12.0953-.8986-18.1531-.0888-1.9989-.6147-4.0436-.3327-5.9787.4294-2.9464,1.537-5.7876,2.0892-8.7237.9445-5.0221,1.5451-10.1103,2.542-15.1207,1.1821-5.9413,1.4302-12.1728,5.2224-17.3637,5.2329-7.1629,14.6824-6.5868,20.8143-1.9903,4.6756,3.5048,7.2979,8.5606,10.723,13.0098.2914.3785-.3079,2.1478-.7416,2.2536-1.6346.3985-3.3732.5076-5.0704.4899-9.2-.0961-16.765,3.5444-23.0314,10.0686-.6471.6737-.6937,1.924-1.0189,2.9067.9719-.2352,2.1992-.1722,2.876-.7519,6.7455-5.7766,14.9784-6.2551,23.202-6.4761,5.1661-.1388,5.804.7656,7.1654,5.9934.9625,3.6962,2.0485,7.3846,3.4416,10.9342.7317,1.8643-.5153,2.3424-1.4173,2.351-2.7688.0261-5.6166-.0019-8.2951-.6145-4.3602-.9973-8.5504-1.4838-12.5873.9309-.7124.4261-1.5406.8683-1.9582,1.5288-.6272.9919-.9389,2.1834-1.3847,3.29,1.0761-.0124,2.1533-.0632,3.2281-.03,3.3146.1022,6.6323.1718,9.9413.3758,3.4979.2157,6.9842.7519,10.4811.8077,2.7296.0436,3.7409,1.094,4.6009,3.7498,2.1255,6.5634,2.7865,13.2749,3.3873,20.0584.2023,2.2844,1.3188,4.4745,1.6743,6.761,1.7704,11.3857,3.428,22.7891,5.1219,34.1867.5514,3.7103,1.3055,7.4078,1.5569,11.1388.1469,2.1803-.2822,4.4792-.8649,6.612-1.1901,4.3566-3.1123,5.6542-7.8766,5.7821-1.5666.0421-3.1352.0066-4.703.0066-.0126.0695-.0251.1391-.0377.2087Z"/>
        <path class="cls-3" d="m307.8103,331.3273c1.7078-.3462,3.4083-.9403,5.1249-.9911,4.7786-.1413,9.567-.146,14.3441.0141.9441.0317,2.3617.8305,2.6947,1.6344,1.4708,3.5499,2.9932,7.152,3.7937,10.886.8553,3.9895-1.1172,5.1492-5.1335,3.9518-3.6946-1.1015-7.5235-1.6361-10.6739,1.5082-.539.538-1.2001,1.6066-.9944,2.0726.2571.5824,1.3409,1.0872,2.0879,1.1166,3.2739.1288,6.555.0756,9.8334.085,5.4867.0157,5.6898.3008,6.7587,5.6384.9967,4.9771,2.4191,9.8705,3.3661,14.8555.8032,4.2279.942,8.5868,1.8206,12.7947,1.9739,9.4538,2.169,19.0068,2.304,28.6003.0959,6.8155.6171,13.6252.9579,20.4371.1734,3.4657-.449,4.24-4.0466,4.1359-2.6458-.0766-5.4819-.0154-7.8775-.9387-4.7858-1.8446-9.673-1.3576-14.5552-1.6749-5.7279-.3723-11.4557-.9297-17.1402-1.7188-3.4734-.4821-6.3853-5.0539-6.956-10.0776-.6002-5.2831-1.1122-10.5791-1.8698-15.8397-.232-1.6107-1.013-3.1927-1.7798-4.6644-1.1746-2.2545-.1528-2.8838,1.859-2.6648.9054.0985,1.7446.7417,2.6304,1.0962,2.6547,1.0622,5.2414,2.6281,7.9954,3.0282,3.9349.5717,5.4393-2.3258,3.7683-5.9036-4.122-8.8252-8.3899-17.6074-11.9262-26.6695-1.5737-4.0327-1.759-8.677-2.1585-13.0814-.5743-6.3307-.6782-12.7026-1.1515-19.0444-.4562-6.1132,1.3697-11.8461,2.4758-17.7241.8997-4.7815,1.844-9.4717,4.5491-13.6075,3.1622-4.8347,9.9272-6.5909,15.1084-4.0119,4.4313,2.2058,8.3731,4.7886,10.0481,9.8834.5917,1.7997,2.1094,3.2762,2.8828,5.0411.5848,1.3344,1.1804,3.0697.7675,4.2859-.2541.7483-2.4294,1.2754-3.6849,1.1765-4.8553-.3825-9.0711,1.2692-13.1094,3.6259-.9005.5255-1.6344,1.3364-2.4449,2.016l.3317.7287Z"/>
        <path class="cls-3" d="m108.9472,436.9386c9.9142.6728,19.8274,1.3615,29.7431,2.012,5.0554.3317,10.1175.5646,15.1706.9248.6761.0482,1.5539.4297,1.8895.9476.2138.3299-.2216,1.5265-.6712,1.7693-3.4961,1.888-2.5364,4.3588-.9169,6.8022,1.4272,2.1532.6691,2.9348-1.5734,3.3011-4.1093.6713-8.1755,1.6733-12.3047,2.1394-5.4499.6152-10.9559,1.2975-16.4147,1.142-9.0208-.2571-18.0403-.9822-27.0284-1.8438-8.7316-.837-17.426-2.0702-26.1264-3.2091-.7363-.0964-1.3937-.7954-2.0878-1.2145.5031-.5579.8994-1.3806,1.5256-1.6327,6.5059-2.619,12.9968-5.2912,19.5965-7.6567,6.1691-2.2112,12.3942-4.5037,19.198-3.4816Z"/>
        <path class="cls-3" d="m255.091,242.9566c4.3494-.7948,5.582,3.3366,7.7424,6.0185.9128,1.1332,1.0848,2.8332,1.8096,4.1573.5357.9787,1.7482,2.6181,2.0925,2.4861,1.267-.486,2.4809-1.4393,3.3503-2.5122.5377-.6635.1528-2.0387.6513-2.778.7876-1.1679,1.9095-2.8197,2.9984-2.9067,1.5892-.1269,3.902.4632,4.7963,1.6118,2.2883,2.939,3.5371,6.4663,1.0954,10.0308-1.92,2.8028-1.8314,5.0773.9205,7.2692,3.0172,2.4031,3.478,5.6857,1.9571,8.9567-1.5335,3.2978-2.3789,7.1656-6.384,8.8497-3.187,1.34-4.0601.9386-4.7065-2.4329-2.0305-10.5914-6.0658-20.166-14.6433-27.2161-1.5493-1.2734-3.6542-1.8534-5.2879-3.0473-1.2322-.9005-3.217-2.9098-2.9763-3.3219,1.1276-1.9309,2.8671-3.5232,4.4978-5.1245.2901-.2848,1.0998-.0405,2.0863-.0405Z"/>
        <path class="cls-3" d="m92.0285,15.1864c-2.6185,1.2275-5.0116,2.3571-7.4295,3.4309-.0514.0228-.5768-.6061-.5602-.9137.0968-1.7963,5.492-4.8252,6.9794-3.9328.2862.1717.4294.5819,1.0103,1.4157Z"/>
        <path class="cls-1" d="m266.1539,129.9791c.3562-2.1563.5919-4.3434,1.1317-6.4528.198-.7739,1.1157-1.3637,1.7051-2.0375.5177.7083,1.3903,1.3691,1.4925,2.133.474,3.5443.7342,7.1171,1.0711,10.6797-2.3869,5.3338-3.1214,10.9699-2.9001,16.7405.0977,2.5462.1313,5.2738,3.8114,5.5647.5453.0431,1.4365,1.1875,1.3929,1.7638-.0502.6631-.8424,1.4754-1.5188,1.8515-3.647,2.0279-8.5981-.9681-8.5335-5.6296.0673-4.8582,1.1062-9.6977,1.6084-14.557.3454-3.3419.4998-6.7035.7395-10.0563Z"/>
        <path class="cls-1" d="m239.5888,134.8493c-.2019-.6392-.7044-1.3708-.5422-1.8979.3204-1.0415,1.0086-1.97,1.5448-2.9451.7491.6044,1.7731,1.0638,2.1854,1.8457.6859,1.3011.9795,2.809,1.4382,4.2297.9554,7.0967,1.8698,14.2027,4.9699,20.7884.1144.243.0379.5718.1378.8264.4857,1.238,2.8009,2.1893.7767,3.8192-2.0937,1.6858-2.9665-.5738-3.914-1.6229-3.3794-3.742-4.5749-8.5376-5.5067-13.273-.7568-3.846-.7552-7.8412-1.09-11.7703Z"/>
        <path class="cls-1" d="m222.684,188.351c2.2691,0,4.5673-.222,6.7979.0711,1.7485.2297,2.9183,1.2809,2.6643,3.5102-.2455,2.1546-1.7121,2.0469-3.0584,2.0178-2.6577-.0575-5.3114-.4671-7.9658-.4577-2.351.0083-4.7031.5568-7.0498.5231-.9977-.0143-1.9828-.9049-2.9737-1.3973.4654-.9113.7421-2.4145,1.4283-2.6333,3.265-1.0411,6.6413-1.7327,9.9781-2.5487.0597.305.1194.61.1791.9149Z"/>
        <path class="cls-1" d="m242.7388,188.2129c.4239.3097,1.7393,1.0146,2.721,2.0391,2.3866,2.4907,4.6291,5.1204,6.9045,7.7161.5465.6234,1.0028,1.3271,1.4875,2.0033.6823.9521,2.3663,2.146.5085,3.0047-1.3374.6182-3.0013,2.6792-4.8163.5709-3.4777-4.0399-7.0839-7.9818-10.3425-12.1921-1.4757-1.9067-.3268-3.2316,3.5372-3.1419Z"/>
        <path class="cls-2" d="m421.3942,146.6481c5.946-.854,9.4039,1.7636,11.4403,7.0272.5557,1.4363,2.2064,2.5985,3.5938,3.5307,2.4813,1.6674,5.1398.8415,6.1413-2.0357.8765-2.5182,1.7771-5.2497,1.6493-7.8366-.1422-2.8758,1.1979-4.7239,3.3124-5.0417,2.2955-.3451,5.5585-.0351,7.0181,1.397,1.5907,1.5608,4.1612,3.7903,3.064,6.8446-.565,1.5728-1.9436,2.8377-2.6269,4.3863-2.6058,5.9051-5.1002,11.8599-7.5893,17.8157-.9126,2.1837-4.0279,3.4187-4.9599,1.7183-2.1259-3.8787-6.457-4.3405-9.495-6.7712-3.1314-2.5054-6.943-4.1575-10.0941-6.6431-1.5414-1.2159-2.5195-3.374-3.2708-5.294-.6504-1.6621-.6713-3.5847-.8783-5.4026-.2475-2.1731.8273-3.4315,2.6951-3.6948Z"/>
        <path class="cls-2" d="m388.067,223.9084c.0201-.066.3531-1.0821.6328-2.1128.1317-.485.3646-1.3561.2069-1.4458-4.1349-2.3504-.5823-5.2125-.478-7.7893.0487-1.2034.6198-2.5079,1.3073-3.5286.6793-1.0085,1.7008-2.2165,2.7585-2.4351,1.4447-.2987,3.4041-.8818,4.1906,1.5561,1.2418,3.8488,3.0927,7.5469,3.9091,11.4704.5242,2.5193,1.3211,4.4629,3.6435,5.1423,2.7779.8126,4.3699-1.095,5.747-3.298,1.1027-1.7641,2.3545-3.5305,3.8875-4.9099,3.0491-2.7438,7.9149-2.5999,10.4708.029,2.6466,2.7223,2.7881,6.5627-.1077,9.8594-3.4836,3.9658-6.7491,8.0375-11.8252,10.5145-4.7212,2.3037-8.8502,5.8567-13.1355,9.0018-2.0155,1.4792-3.0621,1.374-3.877-.9721-1.243-3.5785-1.9753-7.4187-3.7408-10.71-2.22-4.1385-3.3677-5.9564-3.5899-10.3719Z"/>
        <path class="cls-1" d="m13.2822,187.9357c1.085-10.1601,2.6906-19.1256,2.8087-28.1106.1053-8.0106,4.2566-13.8882,7.7949-20.2908,1.6249-2.9403,4.2402-3.0259,6.8729-2.5831.8178.1375,1.8387,1.7121,1.9781,2.7361.4009,2.9434.4134,5.9409.5494,8.9186.0842,1.8436.045,3.6961.215,5.5304.0487.5259.6334,1.0022.9724,1.5013.5117-.4921,1.4438-.968,1.4635-1.4792.0934-2.4133-.0515-4.8367-.147-7.2551-.0101-.256-.3859-.5132-.3672-.7522.1544-1.9704-.3689-4.736.7152-5.7269,1.8821-1.7203,7.2217.1248,8.3579,2.5835,1.6619,3.5963,2.8703,7.3999,4.4453,11.0402.384.8876,1.4431,1.4831,2.1919,2.2129.2018-1.0792.43-2.1547.5852-3.2407.0345-.2416-.2896-.5255-.2755-.7804.1078-1.9542-.4854-4.7666.5593-5.6693,1.8522-1.6006,3.2403,1.3304,4.9363,1.9753,7.8069,2.9681,10.2368,10.0296,13.2834,16.6774.3379.7374.5096,1.7502,1.0912,2.1457,5.3136,3.613,6.6623,9.4725,8.3346,15.0022,2.0198,6.6787,2.6053,13.9243,5.4321,20.1939,3.9708,8.8068,4.2183,18.29,6.1271,27.3696,1.5247,7.2524-1.7488,14.7456-8.5163,19.7303-6.2132,4.5764-13.0273,4.7496-19.8812,2.6679-8.374-2.5434-16.8338-5.1205-24.1587-10.1826-5.8095-4.0148-10.2762-9.2966-13.6935-15.4671-.3972-.7171-.5667-1.7517-1.1649-2.1352-4.212-2.7008-4.1706-7.6459-6.0587-11.5267-1.0913-2.2429-.9643-5.0743-1.4082-7.637-1.0636-6.1403-2.1406-12.2784-3.0431-17.4486Zm40.5655,2.4928c.5096-4.6855-1.1171-8.8423-3.2541-12.8382-.4501-.8416-1.366-1.4342-2.0672-2.1416-.4151.9682-1.3032,2.0088-1.1678,2.8927.8129,5.3036,1.7836,10.588,2.9225,15.8307.1525.7021,1.5534,1.1331,2.3762,1.6897.3968-.8152.9645-1.5946,1.1447-2.4551.1998-.9541.0457-1.9823.0457-2.9782Zm13.5295-3.2491c-.3392.0609-.6784.1217-1.0177.1826,0,.8379-.2454,1.7728.0411,2.4975,1.5114,3.8225,3.1026,7.6164,4.7962,11.3615.3927.8682,1.2932,1.5068,1.9601,2.2511.1791-1.0673.7728-2.2759.4654-3.1774-1.3334-3.9104-2.8811-7.7515-4.4776-11.5648-.272-.6496-1.1627-1.0402-1.7676-1.5505Zm-40.6303-24.8731c-.327-1.7797-.6027-3.6937-1.0766-5.5573-.1135-.4464-.9123-1.0297-1.3492-.993-.415.0348-1.0297.7587-1.1053,1.2491-.3774,2.4497-.7484,4.9177-.8297,7.3888-.0431,1.3095.3214,2.7167.8347,3.9402.748,1.7831,1.9092,1.7138,2.4588-.0975.558-1.8389.7037-3.803,1.0671-5.9303Zm35.112,12.9881c-.6104-1.6444-1.1165-3.362-1.9075-4.9366-.2587-.515-1.2584-.6577-1.9192-.9707-.1782.6102-.6523,1.3241-.4814,1.8122.6253,1.7858,1.4095,3.525,2.2721,5.2111.1708.3338,1.1061.6235,1.4138.4489.3531-.2004.3999-.9402.6222-1.5648Zm14.8325,52.1555c-1.4286-1.5393-2.6232-2.8265-3.8178-4.1137-.582.6608-1.7689,1.7476-1.6508,1.9152.9963,1.4141,2.2098,2.6824,3.4628,3.8854.0574.0551,1.1159-.9325,2.0058-1.6869Zm-11.5222-25.2221c-.1574-.5085-.3148-1.0171-.4721-1.5256-1.2449-1.0263-2.4897-2.0526-3.7346-3.0788-.2569.4691-.8447,1.2105-.7182,1.3643,1.0086,1.2259.1795,4.029,3.0319,3.6679.6388-.0809,1.2624-.282,1.893-.4277Zm-5.8239,37.2736c.227-.1034.454-.2068.681-.3101-.1408-1.5018-.0632-3.0766-.5289-4.4698-.1889-.565-1.5614-.7344-2.3953-1.0837-.0949.7634-.5051,1.6825-.2207,2.2586.638,1.2921,1.6212,2.4139,2.4639,3.605Zm25.2163-3.3971c-1.1686-.6995-1.9499-1.302-2.8339-1.6073-.2387-.0824-.7886.7359-1.1957,1.1408.8027.7234,1.5859,1.4731,2.4518,2.1109.0576.0424.7423-.7664,1.5778-1.6443Zm-39.2555-8.8889c-.1994.2991-.3987.5982-.5981.8973.7524.8273,1.5049,1.6547,2.2573,2.482.3407-.5666,1.0439-1.5681.9663-1.6327-.8029-.6689-1.7317-1.1867-2.6255-1.7466Zm23.6769-12.1413c-.9291-.8714-1.4635-1.4163-2.0696-1.8639-.0525-.0388-.8921.7005-.8294.8445.2312.5305.6099,1.0924,1.0902,1.3821.2825.1704.8614-.1504,1.8087-.3627Z"/>
        <path class="cls-1" d="m236.5053,100.2998c-3.6186-1.1818-9.0457-2.3482-13.9-4.6979-5.666-2.7425-6.107-10.0319-1.8589-14.7395,6.0265-6.6783,14.2364-7.6876,22.3053-8.9905,3.0562-.4935,6.2559-.1144,9.3901-.1067,6.2521.0153,13.293,5.1335,15.2181,10.9365,1.0674,3.2176-1.2621,10.4608-4.3656,12.0147-2.5737,1.2886-5.1753,2.8664-7.9362,3.3639-5.6189,1.0125-11.3536,1.3824-18.8528,2.2193Z"/>
        <path class="cls-1" d="m101.3172,78.6479c-2.6633-.1151-3.4287-.4636-2.23-2.8466,2.0954-4.1655,6.2794-5.2436,9.6941-7.4589,4.9521-3.2128,9.944-6.3674,14.9798-9.4474,3.9029-2.3871,7.8889-4.7217,12.7394-4.1846,1.0193.1129,2.7705.6965,2.8114,1.1795.1049,1.238-.1666,2.9989-1.0037,3.7234-1.7415,1.5072-3.9173,2.532-5.9694,3.655-1.6669.9122-3.7117,1.346-5.0742,2.5664-6.3435,5.6818-14.064,8.5061-21.9284,11.1236-1.5529.5168-3.0279,1.2678-4.0189,1.6896Z"/>
        <path class="cls-1" d="m186.1369,58.1236c-7.218-1.7501-14.8632.4175-21.9982-2.5341-2.4563-1.0161-5.3677-.9187-7.8478-1.8964-1.239-.4884-1.9751-2.2524-2.9387-3.4395,1.2891-.6383,2.6177-1.8944,3.8608-1.8148,8.2775.53,16.5435,1.2772,24.798,2.1055,2.8746.2884,5.6883,1.2126,8.5632,1.4613,2.1864.1892,3.775,1.1642,3.7273,3.1283-.0481,1.9835-1.7726,3.0352-3.8978,2.9949-1.4218-.0269-2.8445-.0051-4.2668-.0051Z"/>
        <path class="cls-3" d="m53.8478,190.4285c0,.9959.1541,2.0241-.0457,2.9782-.1802.8605-.7479,1.6399-1.1447,2.4551-.8228-.5566-2.2237-.9876-2.3762-1.6897-1.1389-5.2428-2.1096-10.5272-2.9225-15.8307-.1355-.8838.7526-1.9245,1.1678-2.8927.7013.7073,1.6171,1.2999,2.0672,2.1416,2.1369,3.9959,3.7636,8.1528,3.2541,12.8382Z"/>
        <path class="cls-3" d="m67.3773,187.1794c.6049.5103,1.4956.9009,1.7676,1.5505,1.5965,3.8132,3.1442,7.6544,4.4776,11.5648.3074.9014-.2864,2.1101-.4654,3.1774-.6669-.7443-1.5674-1.3829-1.9601-2.2511-1.6936-3.745-3.2849-7.539-4.7962-11.3615-.2865-.7246-.0411-1.6596-.0411-2.4975.3392-.0609.6784-.1217,1.0177-.1826Z"/>
        <path class="cls-3" d="m26.747,162.3063c-.3635,2.1273-.5091,4.0913-1.0671,5.9303-.5497,1.8114-1.7108,1.8806-2.4588.0975-.5133-1.2235-.8778-2.6307-.8347-3.9402.0813-2.4711.4523-4.9391.8297-7.3888.0756-.4904.6903-1.2143,1.1053-1.2491.4369-.0367,1.2357.5466,1.3492.993.4739,1.8636.7495,3.7776,1.0766,5.5573Z"/>
        <path class="cls-3" d="m61.859,175.2944c-.2222.6246-.2691,1.3645-.6222,1.5648-.3077.1746-1.2431-.1151-1.4138-.4489-.8626-1.686-1.6468-3.4252-2.2721-5.2111-.1709-.488.3033-1.2019.4814-1.8122.6608.313,1.6605.4558,1.9192.9707.791,1.5746,1.2971,3.2922,1.9075,4.9366Z"/>
        <path class="cls-3" d="m76.6915,227.4499c-.89.7543-1.9485,1.742-2.0058,1.6869-1.253-1.203-2.4665-2.4713-3.4628-3.8854-.1181-.1676,1.0688-1.2545,1.6508-1.9152,1.1946,1.2872,2.3892,2.5744,3.8178,4.1137Z"/>
        <path class="cls-3" d="m65.1693,202.2278c-.6306.1457-1.2542.3468-1.893.4277-2.8524.3611-2.0234-2.442-3.0319-3.6679-.1265-.1538.4613-.8951.7182-1.3643,1.2449,1.0263,2.4897,2.0526,3.7346,3.0788.1574.5085.3148,1.0171.4721,1.5256Z"/>
        <path class="cls-3" d="m59.3453,239.5014c-.8427-1.1911-1.8259-2.3129-2.4639-3.605-.2845-.5761.1257-1.4952.2207-2.2586.8339.3494,2.2065.5188,2.3953,1.0837.4657,1.3932.3881,2.968.5289,4.4698-.227.1034-.454.2067-.681.3101Z"/>
        <path class="cls-3" d="m84.5616,236.1043c-.8356.8779-1.5202,1.6867-1.5778,1.6443-.8658-.6377-1.6491-1.3875-2.4518-2.1109.4071-.4049.957-1.2232,1.1957-1.1408.884.3053,1.6654.9078,2.8339,1.6073Z"/>
        <path class="cls-3" d="m45.3062,227.2155c.8938.5598,1.8226,1.0776,2.6255,1.7466.0776.0646-.6256,1.0662-.9663,1.6327-.7524-.8274-1.5049-1.6547-2.2573-2.482.1994-.2991.3987-.5982.5981-.8973Z"/>
        <path class="cls-3" d="m68.9831,215.0742c-.9474.2123-1.5262.5331-1.8087.3627-.4803-.2897-.859-.8516-1.0902-1.3821-.0628-.144.7768-.8833.8294-.8445.6061.4476,1.1405.9925,2.0696,1.8639Z"/>
      </g>
    </g>
  </g>
</svg>