<?xml version="1.0" encoding="UTF-8"?>
<svg id="Layer_2" data-name="Layer 2" xmlns="http://www.w3.org/2000/svg" viewBox="0 0 344.4473 462.9423">
  <g id="katman_1" data-name="katman 1">
    <g id="_3CiKfJ.tif" data-name="3CiKfJ.tif">
      <g>
        <path d="m193.0882,0c.567.8052,1.5334.975,2.3143,1.4325,4.1777,2.4474,6.2056,6.1727,6.5778,10.9086.0316.4021.0524.8054.0992,1.2057.0541.4626.1442.9913.5737,1.1893.5146.2372.7836-.3127,1.1306-.5885,2.0019-1.5913,4.4372-2.5854,6.1597-4.5724,1.2684-1.4632,2.734-2.5969,4.8667-2.3876.3626.0356.7974-.1812,1.1294-.3913,4.1098-2.6001,9.0214-2.3856,13.4544-3.8482.7627-.2516,1.6181-.3042,2.384.0145,2.2985.9564,4.5276.4748,6.7348-.2779,1.5373-.5242,3.0223-.6006,4.5277.0962,1.4296.6616,2.8896.6268,4.367.1099,2.692-.942,5.3502-1.3846,7.9114.4455.4428.3164,1.0811.5007,1.63.5026,2.7905.0095,5.0417,1.3165,7.228,2.8377.6627.4611,1.3885.8667,2.2006.948,2.6654.2667,4.7189,1.7281,6.6615,3.3828,1.2111,1.0316,2.4503,1.8533,4.1337,1.8839,1.2328.0224,2.1371.7509,2.7918,1.7867,1.0025,1.586,2.2437,2.912,3.9799,3.7241.3522.1647.7524.424.9231.7489,1.3147,2.502,3.7766,3.242,6.172,4.0333,1.8733.6189,3.6691,1.3346,5.2236,2.5842.5352.4302,1.0872.8893,1.7933,1.0005,3.7691.5938,6.5596,2.7983,8.7502,5.701,2.067,2.739,4.652,4.7626,7.5413,6.4714,1.8584,1.0992,3.143,2.6305,3.9839,4.6128,1.0905,2.5707,2.6429,4.8082,4.7363,6.713,2.1396,1.9468,3.4663,4.4465,3.9947,7.3013.7831,4.2309,2.5186,7.9101,5.395,11.1868,2.6154,2.9793,2.7485,6.7862,2.1425,10.502-.6069,3.7215.1931,6.9657,2.4841,9.8847,1.1458,1.4599,1.8938,3.1245,1.7642,4.9408-.4378,6.1365.3667,11.9636,3.057,17.601,1.9467,4.0793,1.6063,8.5467.8555,12.9104-.3252,1.8901-.2616,3.5867.8578,5.2648,1.1212,1.6807.8636,3.6595.6044,5.5454-.1876,1.3648-.4772,2.7271-.8572,4.0514-.8549,2.9796-.8759,6.0378-1.1904,9.0836-.3972,3.8454-2.366,7.4142-2.5229,11.4066-.065,1.6548-1.2286,3.0731-2.0671,4.5177-.3443.5932-.7897,1.1391-.8851,1.8551-.9071,6.8084-5.2319,12.0752-8.109,17.9949-.1758.3617-.4438.6832-.5881,1.0548-1.7836,4.5939-4.7816,8.3647-8.0507,11.9545-.8195.8999-1.5121,1.8805-1.9621,3.0257-.1241.3159-.2812.7246-.5435.8643-3.5954,1.915-5.1226,6.2695-9.1317,7.7193-.7147.2585-1.3813.8748-1.873,1.485-1.5726,1.9519-3.623,2.9647-6.0352,3.3567-1.5643.2541-2.9923.8417-4.2523,1.7912-3.2018,2.4127-6.8416,3.7056-10.7523,4.3935-1.5233.268-2.9953.9915-4.5162,1.0832-7.2235.4356-14.6391,1.1329-21.0284-3.1278-4.1824-2.789-7.9599-6.2574-10.848-10.5054-2.5112-3.6937-4.0059-3.9995-7.7904-1.3901-2.0354,1.4034-3.9579,2.9577-6.0502,4.2955-6.1249,3.9164-10.8632,9.164-14.4296,15.4914-.4949.8781-.6493,1.8404-.8378,2.7964-.8121,4.1194-2.3883,8.0462-3.018,12.219-.172,1.1399.0205,1.8173.9539,2.4728,2.6432,1.8564,2.6347,3.6385-.0652,5.4935-1.4226.9774-1.7959,2.3458-1.7931,3.8852.005,2.7651.0947,5.53.1501,8.295.0023.1151-.0197.2478.0284.3423,1.6626,3.2646,1.4087,6.7879,1.5207,10.2929.0642,2.0083.734,3.9575,1.962,5.6407.6109.8374.7969,1.8163.6033,2.7996-.2497,1.2688.1096,2.2904,1.0276,3.1162,2.2314,2.0075,3.2567,4.5086,3.2663,7.4933.0074,2.2896.7499,4.2637,2.6233,5.7426,1.1306.8925,1.7126,2.1371,1.8972,3.5706.2514,1.9523,1.1489,3.4962,2.5373,4.9461,2.0348,2.1248,2.9178,4.926,3.5625,7.7491.2562,1.1217.7245,2.0138,1.5609,2.7966,1.7843,1.67,2.9964,3.6304,2.8893,6.2077-.0674,1.6204.8492,2.8614,1.7969,4.0113,1.6625,2.0172,2.6426,4.3061,3.0121,6.8646.3748,2.5953,1.5367,4.938,2.3073,7.4052,2.449,7.8409,3.6108,15.7478,1.6627,23.8987-.7235,3.0269-.3802,6.1963-1.1269,9.2424-.3511,1.4322.9541,1.3437,1.801,1.4286,2.3466.2354,4.7246.2348,7.05.5908,8.026,1.2284,15.8498,3.3738,23.6957,5.4135,4.6201,1.2011,9.1861,2.5412,13.6374,4.2968,4.7484,1.8727,8.4737,5.044,11.7375,8.8359,1.6035,1.863,1.6279,1.9448,3.8689.875,1.1466-.5474,2.3309-.9696,3.5491-1.3274,1.4527-.4267,2.532-.026,3.086,1.3786.5758,1.46-.5,2.1557-1.5515,2.6505-3.0152,1.4189-6.0709,2.8028-9.1663,3.9789-3.5339,1.3427-7.0396,2.7888-10.6514,3.9617-15.0523,4.8881-28.9125,2.5531-41.7769-6.5026-4.3767-3.0809-8.8321-6.0497-13.2169-9.1193-1.2977-.9085-2.3608-1.034-3.377.3517-1.6274,2.2192-3.7133,3.5375-6.5895,3.4254-.6581-.0256-1.7258.0577-.7876,1.2811,3.664,4.7775,4.6592,10.2491,4.0903,16.1097-.178,1.8334-.4634,3.6611-.5422,5.4981-.0988,2.3018.7498,3.277,2.9822,3.6817.6769.1228,1.3811.2722,2.0545.21,6.5923-.6089,12.7119,1.6021,18.9469,3.1272,1.4511.3549,2.8859.8804,4.3579,1.0257,3.4524.3408,5.784,2.3721,7.8177,4.8851,1.3774,1.7021,2.7007,3.4438,4.3144,4.937,3.5489,3.2839,4.611,7.6376,4.9422,12.1808.2583,3.5435-3.8412,7.57-7.4988,7.3704-2.1875-.1193-4.194.1945-6.2321.866-3.035.9999-6.1924,1.3753-9.3656,1.2193-3.9691-.1952-7.4742.871-10.6909,3.1746-2.146,1.5367-4.613,2.198-7.2511,2.477-4.2671.4513-8.4172.2513-12.6762-.5219-2.6507-.4813-5.5999.2833-8.3451.8369-2.7713.5589-5.4626.718-8.1859-.0287-5.099-1.3983-10.171-.3022-15.2445.172-1.556.1454-3.0928.2307-4.6457.04-3.9027-.4791-7.7759-.1995-11.6772.2169-2.6123.2788-5.2836.0072-7.9284-.024-1.7837-.0211-3.5634-.0722-5.3348.2625-5.8946,1.1138-11.751.4789-17.6785.0054-6.261-.5001-12.2266-1.9827-18.2018-3.6458-1.2083-.3363-2.414-.0878-3.6065-.041-4.2861.1683-8.486-.4198-12.6685-1.2353-1.6615-.324-3.3257-.2473-4.9881-.0691-2.1907.2347-4.3644.2205-6.5228-.2736-.3905-.0894-.8003-.2235-1.1857-.1843-2.4031.2448-4.5304-.1748-6.3261-1.9978-2.5993-2.6386-5.3437-5.1329-5.4867-9.2341-.044-1.2617-.2409-2.5208-.4134-3.7748-.1881-1.367-.0622-2.6218.8974-3.7202.6231-.7133.9448-1.5541.8314-2.5491-.0949-.8323.2197-1.5777.6738-2.2726.8186-1.2526,1.6266-2.5121,2.4261-3.777,1.6538-2.6168,3.1386-5.2897,6.4508-6.3552,1.7747-.5709,3.1727-2.052,4.5724-3.3442,2.5192-2.3258,5.3877-3.4164,8.8551-2.7237,2.168.4332,4.1067-.0932,5.6603-1.7698,3.6362-3.9241,8.1046-5.1581,13.1783-3.697,4.4721,1.2879,8.793.4596,13.0479-.6673,5.9793-1.5835,11.9921-2.0278,18.1322-1.5892,4.3756.3126,8.7368-.1993,13.0919-.5974,1.435-.1311,2.2575-.8703,2.5086-2.3629.4869-2.894,1.0009-5.7886,1.6643-8.6456.37-1.5935.0235-2.1105-1.6641-2.4743-10.1494-2.1877-19.0283-6.7213-25.8597-14.7584-1.1611-1.366-2.1107-2.9051-1.4566-4.8851.201-.6084-.1353-1.1133-.5293-1.5632-1.0156-1.1594-1.453-2.5556-1.843-4.0285-3.075-11.6114-3.4647-23.4213-2.6584-35.3163.1559-2.3005.8485-4.5168,1.5646-6.7108.3208-.9829.7494-1.9911.7792-2.9982.1462-4.9466,2.4267-9.135,4.4898-13.4292,1.0186-2.1201,1.8048-4.3541,2.6566-6.552,3.5277-9.1028,8.8457-16.9883,15.7705-23.8679,3.182-3.1613,5.9427-6.6418,7.0405-11.2572.686-2.884,1.9881-5.6356,3.1615-8.3835.655-1.5339.2011-2.3501-1.2035-2.9389-1.2723-.5335-2.5047-1.1641-3.7841-1.6787-1.5237-.613-2.032-1.7442-1.8906-3.2943.2064-2.2629,1.4399-3.8391,3.3213-4.961,1.3365-.797,2.7445-1.4638,4.2299-1.9326.9342-.2948,1.301-.7275.9793-1.7732-.4236-1.3767-.5576-2.817-.474-4.2729.0257-.4471-.0313-.9401-.1997-1.3509-1.4801-3.6108-3.1282-7.1819-5.6426-10.163-1.8368-2.1778-4.5662-3.1635-7.2943-3.9985-5.4853-1.6789-10.9447-3.4482-16.4065-5.1958-3.2-1.0239-6.4856-1.4976-9.697-2.3683-4.863-1.3186-9.8398-2.164-14.6172-3.8721-2.7362-.9783-5.7179-.2794-8.5865-.387-4.953-.1857-9.7783-1.0191-14.6578-1.8983-4.4428-.8006-8.8894-1.787-13.3939-2.3073-1.9635-.2268-3.8247-.7164-5.5855-1.6477-2.265-1.198-4.7248-1.8666-7.2594-2.0416-1.6408-.1132-3.1636-.4689-4.6688-1.0726-4.589-1.8404-9.2162-3.5854-13.0656-6.8591-.9088-.7729-2.0213-1.3147-3.0679-1.9144-2.1733-1.2453-4.1243-2.6984-5.4341-4.9224-.8582-1.4573-2.1231-2.5636-3.5705-3.4492-2.1694-1.3274-3.8198-3.1211-4.8611-5.458-.624-1.4005-1.7635-2.4077-2.7345-3.539-.9661-1.1255-1.8066-.3034-2.4904.3427-2.2391,2.1156-4.7669,3.7512-7.4969,5.1758-1.5141.7901-3.0462,1.4792-4.6809,1.6369-5.3143.5127-10.6482,1.1172-15.8657-.7904-2.6386-.9647-4.5486-2.657-5.7043-5.1918-4.554-9.9883-4.1903-19.4896,2.7162-28.4099,1.7803-2.2994,3.6825-4.4347,6.0758-6.0803,3.6974-2.5423,7.0837-5.5315,11.0208-7.7265,2.9024-1.6181,5.8322-3.0812,9.274-1.4791.9032.4204.7274-.4705.7669-.8739.2294-2.3467.2896-4.7008.8807-7.0159,1.7432-6.8276,2.5841-13.9476,6.6359-20.0075.1263-.1889.2635-.4125.2782-.6279.2891-4.2386,3.2344-7.1493,5.2391-10.5285.2347-.3956.6372-.7367.7416-1.1578,1.4178-5.7206,5.7471-9.3318,9.4977-13.4002,1.8228-1.9773,3.247-4.3176,4.9253-6.435,2.234-2.8184,4.8603-5.2233,7.9127-7.1448,1.1842-.7455,2.1815-1.7175,3.0357-2.7999,2.176-2.7574,4.6834-4.9953,8.0261-6.3252,2.45-.9748,4.7529-2.3188,6.7559-4.1094.4113-.3677.9858-.7015,1.5174-.7608,3.1519-.3516,5.9789-1.602,8.7296-3.0583,1.2005-.6355,2.4189-.7452,3.6636-.3413,2.8885.9375,5.4673-.0122,7.9297-1.3406,1.8204-.9821,3.5386-1.7543,5.6909-1.0074,1.8194.6314,3.4447-.6306,5.18-.9258.8431-.1434,1.7023-.6939,2.5253-.337,2.4385,1.0576,4.906.8593,7.422.458,1.7497-.2791,3.2481.6573,4.785,1.25,1.3343.5146,2.5261.5918,3.774-.1726,1.4723-.9019,3.0473-.9887,4.6403-.3379,1.8608.7601,3.5755.6211,5.1729-.6717.5981-.4841,1.2919-.7998,2.0814-.4369,1.7959.8255,3.3907.2172,4.8802-.7525,1.5965-1.0394,3.1531-1.8829,5.1065-.8694.5576.2893,1.2821.2371,1.8574-.0512,3.7791-1.8938,8.0677-2.846,11.1492-6.0429.3472-.3602.8365-.6344,1.3108-.8125,4.5816-1.7202,8.2533-4.6317,11.2588-8.4574.8981-1.1432,2.0728-1.9641,3.3672-2.6495,3.1396-1.6624,5.8368-3.8783,8.0722-6.6559.5827-.724.9977-1.4392.4582-2.3415-2.3881-3.9936-4.4051-8.219-7.5278-11.7508-1.5191-1.718-2.3685-1.9301-4.2451-.611-1.4303,1.0053-2.4325,2.4396-3.5921,3.7172-.4601.5069-.8922,1.5268-1.7406.9384-.7321-.5078-.2061-1.378.0701-2.0539,1.6453-4.0265,4.7018-6.5797,8.6057-8.2617.6046-.2605,1.4097-.2185,1.7269-.9941h2.4184Zm133.0084,80.6073c0-1.152.0539-2.3072-.0122-3.4554-.1081-1.8773-.5675-3.6789-1.9291-5.052-3.2943-3.322-5.0795-7.3333-5.6913-11.9294-.3134-2.354-1.1731-4.4775-3.0693-6.0022-2.5004-2.0105-4.1911-4.5549-5.2759-7.5422-.4913-1.3531-1.4042-2.2586-2.6552-3.0267-3.0053-1.8453-5.8496-3.9726-7.6896-7.0578-.9362-1.5698-2.005-2.5658-3.8619-2.7009-.8826-.0642-1.6345-.6109-2.2539-1.2025-2.1153-2.0203-4.8033-3.1208-7.2026-4.6766-3.0836-1.9995-6.359-3.9332-7.9837-7.5483-.3613-.8039-.8975-1.5194-1.8341-1.6939-1.9216-.3582-3.5069-1.4127-5.1154-2.4136-1.3805-.8589-2.7506-1.5715-4.4771-1.5597-1.183.0081-2.4324-.2556-3.4448-.9749-1.8512-1.3152-3.7088-2.4718-6.1538-2.0287-.4497.0815-.9934-.2363-1.467-.4339-.8113-.3385-1.6638-.605-2.5181-.4836-4.0818.5801-8.171-.0994-12.2233.0875-3.2826.1513-6.5717.2421-9.8479.426-4.4929.2522-8.6566,2.1612-12.8526,3.7027-7.0258,2.5811-12.026,8.2175-17.8627,12.5025-4.7628,3.4966-8.3229,8.6304-13.4043,12.0178-2.3827,1.5883-4.5593,3.481-7.0595,4.9393-2.631,1.5345-5.2625,3.1214-7.6653,4.9812-3.095,2.3957-6.3933,3.9985-10.3497,4.1062-.4402.012-.8856.1962-1.3106.3503-4.8527,1.7595-9.6199,3.8764-14.9869,3.3666-1.2737-.121-2.5457.1064-3.7408.5146-1.7681.6039-3.4719.6087-5.234-.0079-.747-.2614-1.5938-.2224-2.3651-.4315-2.4455-.663-4.8222.5633-7.3385.0469-4.3356-.8897-8.6901.3689-13.0453.5387-1.3274.0518-2.7336.3955-3.9896,1.0259-1.9027.955-3.9528,1.306-6.0333,1.1379-2.0429-.1651-3.8854.3127-5.6345,1.2466-2.5566,1.3649-5.1496,2.5629-8.1218,2.6555-.3798.0118-.7642.2338-1.1263.4019-6.1345,2.8482-10.8504,7.6952-16.1783,11.6633-5.4774,4.0794-9.2033,9.9288-13.7857,14.9208-.3397.3701-.5515.8746-.7616,1.3441-.8967,2.0034-2.0101,3.8827-3.2226,5.7053-1.7231,2.5902-3.4137,5.1825-4.1703,8.2749-.3288,1.3436-1.0609,2.5329-1.8888,3.6621-1.4025,1.913-2.6986,3.9261-2.9837,6.3358-.206,1.7411-.6897,3.3575-1.3075,4.9829-1.2988,3.4173-2.9631,6.7609-2.2429,10.6396.1361.7328-.2601,1.5704-.4353,2.3541-.6028,2.6982-1.3597,5.3937-.5565,8.1756.565,1.9569.3585,3.8549-.1434,5.7842-.4574,1.7583-.6109,3.5542.4408,5.1802,1.1941,1.8463,1.399,3.8749,1.2058,5.973-.2971,3.2262.4812,6.1634,2.1952,8.8846.2748.4362.4949.9104.7074,1.3819,1.796,3.9847,4.3761,7.473,7.3273,10.6119,4.9601,5.2755,10.9981,9.2279,17.0713,13.0891,2.3393,1.4872,4.9172,2.467,7.5215,3.4148,5.4671,1.9897,11.1286,3.2046,16.7506,4.6252,7.6486,1.9327,15.3263,3.6463,23.1804,4.3382,5.6744.4999,11.3362.8325,16.8818,2.341,3.5981.9788,7.2672,1.2994,11,.1698,2.1821-.6603,4.5188-.8389,6.7982-1.1418,10.5879-1.4068,20.3486-4.7416,28.5063-11.9668,6.1621-5.4577,12.3826-10.8494,18.5758-16.2718.6711-.5875,1.1525-1.3238,1.2835-2.1954.4873-3.2444,1.7274-6.2,3.3936-8.9865,1.1523-1.927,1.1166-3.7027-.1-5.6415-1.0123-1.6131-.8495-3.4192.0828-5.0945.4192-.7534.9385-1.4505,1.3698-2.1977.4421-.7659.8445-1.6493,1.9431-1.234,1.2392.4684,3.0469.5681,3.1695,2.1999.1452,1.9328.9272,3.499,1.7175,5.1661,1.4642,3.0888.3955,5.9893-2.5785,7.5416-.396.2067-.8632.4778-1.0531.8456-1.0897,2.1101-2.7035,3.9872-2.4053,6.6712.3151,2.8358-.9953,4.8666-3.6486,6.0096-.6282.2706-1.2736.5888-1.784,1.0319-5.378,4.6687-11.078,8.9573-16.0786,14.0737-5.2282,5.3493-11.5814,9.0443-18.5796,11.5563-3.4074,1.2231-7.0443,1.6414-10.6064,2.2917-.6264.1144-1.5546.1179-1.586,1.0201-.0367,1.0521.955.9767,1.6436,1.1234,4.2415.9039,8.1574,2.6963,12.179,4.2424,3.4668,1.3328,6.5167,3.392,9.8788,4.8832,2.9913,1.3268,4.4644,4.2614,5.7125,7.0158.698,1.5405,1.0213,3.2579,2.2219,4.556.9548,1.0323,1.3766,2.2107,1.3165,3.6183-.0341.799-.0728,1.6687.1944,2.3945.5073,1.3779.9168,2.6926.5275,4.1893-.234.8997.3936,1.2731,1.2085,1.2191.9155-.0607,1.8216-.2667,2.7371-.3242,4.8289-.3032,9.5661-1.3251,14.3708-1.8124,1.2679-.1286,2.0009-.5746,2.1738-2.0891.8144-7.1338,3.3402-13.8665,6.8756-19.9172,2.8655-4.9042,6.1289-9.9494,11.8815-12.4999,6.1318-2.7186,10.5004-8.2515,16.718-10.9135.5853-.2506.7952-.8051.7458-1.438-.4476-5.733-.2968-11.487-1.2276-17.2145-.9835-6.052-2.0923-12.1558-.9492-18.365.6874-3.7343,1.2586-7.4965,1.7057-11.2671.911-7.6833,2.28-15.2048,5.3741-22.397,3.7227-8.6533,9.139-16.2234,14.4468-23.8838.3513-.507.8652-.9256,1.3687-1.2967.7501-.5528,1.3757-.3766,1.827.4625.6388,1.1877.7519,2.3674.2092,3.6431-1.2007,2.8224-2.6909,5.4916-4.4829,7.9594-4.9525,6.8201-8.1462,14.473-9.8569,22.6108-1.2963,6.1668-1.5633,12.5478-2.3481,18.826-.4866,3.8924-.7017,7.7973-.724,11.7129-.0231,4.071.9482,8.08.8197,12.1618-.0017.0537.0274.1135.056.1623,1.5781,2.6847,1.2706,5.8526,2.0648,8.7538.8188,2.9912.5874,6.3067,1.565,9.4329.8382,2.6805,2.0303,5.2149,2.8601,7.8888.1594.5136.5877,1.0171,1.0221,1.3601,3.866,3.0528,7.81,5.8532,13.1206,5.7241,1.9022-.0462,3.8608.2857,5.5834-.6102,1.4962-.7782,3.0021-.9842,4.4993-.5424,1.6355.4825,2.9174-.0466,4.2049-.8499.7806-.487,1.5473-1.0014,2.286-1.5498,2.1731-1.6131,4.523-2.6935,7.2911-2.794,1.6671-.0606,3.0672-.7217,4.1675-2.0993,2.393-2.996,6.2285-4.4628,8.345-7.7778.1141-.1788.3522-.318.5619-.3902,3.5493-1.2217,5.2235-4.1345,6.6127-7.3104.4657-1.0646,1.0119-2.0702,2.0227-2.7367,1.9383-1.278,3.2469-3.0635,4.1565-5.1741.5494-1.2748,1.2383-2.4748,2.1215-3.5469,1.3834-1.6794,2.2449-3.5942,2.7333-5.7041.194-.8382.3213-1.7674.7778-2.4572,3.3067-4.9972,3.693-10.9565,5.3947-16.4668,1.3448-4.3546,1.0583-9.0779,2.4871-13.4964.8619-2.6655,1.3173-5.4798-.268-8.2011-.4015-.6891-.3522-1.6775-.3928-2.534-.0998-2.1033.502-4.089,1.0567-6.0931.5426-1.9603.8032-3.9811-.3208-5.8537-2.7839-4.6377-3.7812-9.6627-3.6858-15.0376.0505-2.8438.2494-5.9868-1.6456-8.3188-2.9941-3.6844-3.5099-7.8931-3.4244-12.3342Zm-165.3468,344.3363c-4.0853.2313-7.0252-.1971-9.6989,1.2076-1.5639.8216-3.2129,1.1335-4.9573,1.3077-1.8662.1864-4.0933.0609-5.451,1.2234-2.3597,2.0207-5.0628,3.4932-7.5012,5.3705-3.67,2.8255-6.4757,6.3186-9.0338,10.0815-.2692.3961-.7527.9677-.2451,1.3964,1.9968,1.6863,3.4615,4.1049,6.137,4.8634,1.9291.5469,3.9346.8217,5.9035,1.2304.8303.1723,1.4757-.0177,1.3253-.9842-.3791-2.4352.6888-4.4872,1.56-6.6127,1.2702-3.099,6.945-5.2324,9.8827-3.6651.6743.3598,1.2449.8246,1.2278,1.7209-.0164.8578-.4682,1.4498-1.1819,1.7606-.8377.3649-1.7516.5498-2.6148.8619-3.0752,1.112-4.2028,3.2139-3.5476,6.3265.2544,1.2086.8512,1.8186,2.0736,1.8614,3.8608.1351,7.6833.6457,11.4955,1.2312.8959.1376,1.3058-.1867,1.704-.9877.7926-1.5945,1.3638-3.2934,2.1706-4.8572,1.4016-2.7166,7.0936-4.3994,9.8849-3.1367,1.1055.5001,1.1723,2.2864.0443,2.9918-.7228.452-1.574.6938-2.3512,1.0641-1.394.6642-2.8959,1.1533-3.9323,2.4103-.7519.9117-.5342,1.4517.6109,1.6099.4524.0625.919.0321,1.3791.0278,7.1875-.0664,14.3789.1556,21.5577-.4607,3.4413-.2955,6.8929.2964,10.3502-.0161,3.5409-.3201,7.0812-.8853,10.6566-.334,4.8114.7419,9.6179.9565,14.4019-.2322,1.0231-.2542,2.0624-.128,3.0951-.0454,3.4407.2749,6.8809.5553,10.3214.8314,1.1052.0887,2.2187.0533,3.1905-.5141,2.4933-1.4558,5.2034-2.4475,7.7732-3.7321,1.9818-.9907,4.0124-1.1404,6.1897-1.0617,4.6064.1663,9.2345.2207,13.2514-2.687.7104-.5141,1.6077-.578,2.4841-.6058,2.088-.0662,2.331-.2527,1.6445-2.1854-2.1024-5.9189-6.2603-9.9624-11.768-12.8344-1.6698-.8708-3.3912-.869-5.1085-1.1916-4.3221-.8119-8.4304-2.573-13.015-2.2308-4.8769.364-9.2267-1.5305-13.2719-4.1514-1.554-1.0069-2.2296-2.3819-2.1323-4.2266.1094-2.0746.1817-4.1604.8286-6.144.875-2.6827.5932-5.3066.0163-7.995-.5765-2.6863-1.9242-5.1937-1.8138-8.0403.0711-1.8343-.3032-2.1307-2.1266-1.8161-.5077.0876-.9934.3016-1.5009.391-2.6684.4707-5.4929,1.0052-8.0319.3511-3.4126-.8791-6.6564-2.5196-9.5417-4.6835-.8894-.667-1.5605-1.5366-2.0876-2.5042-3.5144-6.4509-4.9307-13.5074-5.4078-20.7052-.342-5.159.2088-10.3605.6474-15.5245.8041-9.467,1.1754-18.9704,2.3675-28.4045.2465-1.9512.7199-3.8388,1.599-5.6178.6978-1.4121,1.7543-1.5387,3.0121-.9006,1.3956.708,1.5841,2.0159,1.5427,3.3957-.1298,4.32-.7339,8.583-1.2568,12.871-.9524,7.8106-1.7175,15.6768-1.1538,23.5832.1433,2.0096.2529,4.0216.4075,6.0303.5029,6.5313,1.028,12.9124,4.9394,18.7179,2.0591,3.0562,4.5688,4.6535,7.679,5.8832,1.3391.5295,2.2536.0538,2.6303-1.3339.1796-.6615.3077-1.3472.3652-2.0298.2726-3.2387,1.0784-6.3475,2.2183-9.3777.227-.6033.5185-1.2283,1.2678-1.2455.6751-.0156.9201.5998,1.2239,1.0833,1.3206,2.1017.7359,4.3651.4246,6.5472-.2571,1.8019.0499,3.2918,1.6712,4.152,1.7995.9548,3.9307,1.7679,5.7028.4324,2.2852-1.7222,4.2947-3.8084,6.688-5.4368,1.0832-.7371.7892-1.6579-.5147-2.1129-1.0143-.354-2.0555-.0396-3.0855-.1499-4.2947-.4599-7.2271-5.5157-5.4467-9.452.6894-1.5241,1.7963-1.8474,3.1852-.8799.5159.3593.9522.832,1.4322,1.2442,1.7486,1.5017,3.6493,2.7976,5.5871,4.0329.8958.5711,1.5285.4216,1.4689-.849-.0864-1.8417-.0663-3.6917-.2308-5.5257-.2001-2.2308-.9424-2.99-3.1167-3.53-3.7974-.943-6.0053-3.6833-6.1047-7.5652-.0118-.4599-.0143-.9284-.1029-1.3767-1.5098-7.6412-1.4478-15.216.8875-22.7079.3078-.9874.5912-1.9941.7532-3.013.3725-2.3428-.169-4.6621-1.7666-6.2527-2.4431-2.4324-3.7233-5.1888-3.8895-8.558-.0514-1.042-.4343-1.8965-1.3946-2.4203-2.9039-1.5838-3.8408-4.2799-4.089-7.3381-.0583-.7193-.184-1.3291-.7691-1.8312-2.3952-2.0552-3.3657-4.7595-3.2953-7.8317.0409-1.7829-.452-3.2549-1.6873-4.5396-1.5953-1.6591-2.8032-3.5123-2.6176-5.976.0498-.6605-.2873-1.2403-.648-1.7556-1.8479-2.6404-2.2818-5.5906-2.0363-8.7237.0984-1.2563.2859-2.5845-.3203-3.7441-1.317-2.5193-1.9383-5.1517-1.7036-7.992.0705-.8532-.1475-1.645-1.0283-2.0026-2.0664-.8388-4.1269-1.5057-6.2205.0199-.5895.4296-1.3416.64-2.027.9325-3.7022,1.5805-7.5677,2.3164-11.5918,2.293-1.5857-.0092-2.4881.7592-2.4168,2.4483.0605,1.4352-.4255,2.712-1.1611,3.9131-1.7172,2.8037-3.1429,5.7539-4.3972,8.7897-.3557.8609-.7213,1.8136-1.5726,2.2047-1.9297.8865-2.797,2.6577-3.8897,4.2637-.8738,1.2843-1.5523,2.8157-2.7024,3.775-2.7743,2.3138-4.4829,5.4009-6.4113,8.3024-2.4746,3.7232-5.0874,7.4164-6.2756,11.8423-.8379,3.121-1.7846,6.1958-3.6292,8.912-.2454.3614-.3848.8489-.4207,1.2904-.3285,4.046-1.7914,7.8433-2.5402,11.7887-.5865,3.0907-1.5519,6.1863-1.116,9.3885.4001,2.9387.3703,5.8605.0457,8.7885-.2123,1.9147-.3023,3.7798.7393,5.5333.5441.916.6152,1.9599.5351,3.0174-.3242,4.2789,1.4462,8.1633,2.3466,12.2095.1295.5818.5648,1.1428.9789,1.6057,1.9658,2.1974,3.0704,4.837,3.9594,7.5862.2218.6859.5286,1.2536,1.1163,1.685,5.6404,4.1403,11.6614,7.3559,18.8227,7.8406.8056.0545,1.6005.2018,2.3101.6337.9638.5866,2.035.7609,3.1371.8346,2.2957.1534,4.5904.3231,6.8862.4762,1.1135.0743,2.117.4184,3.079,1.0015,2.3257,1.4098,3.8891,3.569,5.5949,5.587.716.8471,1.0353,1.8382.3871,2.8659-.6746,1.0696-1.7363,1.3385-2.8753.9741-4.2382-1.3559-8.5489-2.1806-13.0202-2.0787-.5826.0133-1.1413-.1967-1.4768.4877-2.0535,4.189-2.8136,8.447-.9928,12.9631.6052,1.5011,1.4849,3.3451-.1887,4.6119-1.6499,1.2489-3.1078-.1693-4.2697-1.1753-1.301-1.1263-2.6047-1.2967-4.1501-.9182-5.5478,1.3587-11.2132,1.3413-16.8251.9272-3.882-.2865-7.6357-.0008-11.1952,1.2925-5.5337,2.0104-11.1854,2.2153-16.8502,1.4701-3.8205-.5026-6.8401.5433-9.6665,2.9073-2.7053,2.2626-5.3969,4.4986-9.4171,3.4551-1.471-.3819-2.8236.5315-4.1071,1.4267-2.8472,1.9858-5.1914,4.7871-8.7897,5.5938-.4298.0964-.6917.4104-.8402.8024-1.3877,3.6632-3.5705,7.0059-3.2861,11.2701.2336,3.5029,3.8649,7.0338,7.359,6.4704.9526-.1536,1.3602-.5483.9581-1.513-1.5346-3.6818-.1214-6.981,1.3415-10.269.4423-.9942,1.1084-1.7724,2.2658-1.9056,2.059-.2369,4.0973-.5464,6.0878-1.1626,1.1382-.3524,1.7676.2759,1.9348,1.3553.1839,1.187-.1397,2.187-1.3414,2.6985-1.1097.4723-2.2293.9221-3.3522,1.3622-2.2919.8984-3.2449,2.4549-2.833,4.8701.1925,1.1288.6495,2.2118.8525,3.3397.2094,1.1634.8923,1.5297,1.9483,1.4631,2.2772-.1436,4.4824.1862,6.5806,1.0794,1.2383.5272,1.4035-.0737,1.2722-1.0806-.2676-2.0533.3617-3.9629.7823-5.9381.6341-2.9783,2.3665-5.3129,3.874-7.816,1.8358-3.0484,4.5096-5.3364,7.4545-6.9839,3.5585-1.9907,7.1175-3.9914,10.6387-6.0508,1.6937-.9906,3.4789-1.5118,5.4022-1.5707,1.6801-.0514,3.3115-.3107,4.9332-.7423,3.4999-.9315,7.0409-.9056,10.6198-.496,3.6384.4165,7.3378,1.1036,10.6806-1.2445.8048-.5653,1.7695-.7878,2.7129-1.0685,3.9806-1.1844,7.9855-.4962,11.7646.4745,4.4988,1.1556,8.816,1.2366,13.2773.2541,1.1963-.2635,1.818-.7513,1.9906-1.9678.3638-2.5646.7781-5.1177.8882-7.7152.1583-3.7334.194-7.5095,2.5525-10.7295.5093-.6954.9022-1.599,1.978-1.3392,1.1285.2725,1.9833.9571,2.2225,2.1593.099.4974.0071,1.0322.0073,1.55.0029,7.2877-1.402,14.5235-.7183,21.8448.2222,2.3794-1.0621,4.2083-3.0757,5.4235-1.6211.9783-3.7037.3307-4.4068-1.2607-1.0117-2.2899-1.4079-2.5496-3.8644-2.1863-4.172.6171-8.2516.5006-12.1835-1.2417-.8456-.3747-1.7801-.3835-2.7011-.4712-3.9157-.3731-7.0995,1.9501-10.6577,2.8805-.9864.258-1.9035.7245-2.9668.6594-2.4681-.151-4.9254-.536-6.1763-.4247Zm123.1671-24.4684c5.734.027,11.3393-.7846,16.7737-2.6719.6366-.2211,1.4779-.2534,1.6319-1.0633.1583-.8326-.4938-1.3727-1.0619-1.8597-2.2936-1.9666-4.8125-3.5441-7.7381-4.4028-3.6348-1.067-7.2956-2.0074-11.0243-2.7117-7.7914-1.4716-15.5342-3.1731-23.1859-5.2689-1.1047-.3026-2.057-.02-2.7848.8778-1.0547,1.301-1.9453,2.6822-2.466,4.3114-.4068,1.2727-.0343,2.0416,1.047,2.7404,2.1821,1.4102,4.5273,2.5075,6.8214,3.6988,6.8992,3.5826,14.0243,6.4218,21.9872,6.35ZM32.4398,147.0967c.0018-1.9673-.1138-3.3986-.6258-4.7649-.8358-2.2303-2.0406-2.817-4.305-2.1755-1.9205.5441-3.5098,1.7171-5.1476,2.7603-5.8074,3.6991-11.2668,7.7836-14.6068,14.0641-1.0911,2.0517-2,4.1892-1.9235,6.5393.1389,4.2662,1.4309,8.2336,3.414,11.9993.9292,1.7644,2.3977,2.7678,4.2571,3.2192,1.2247.2973,2.488.4403,3.7379.626.5573.0828,1.2706.2438,1.4639-.4696.1647-.6077-.5238-.8231-.9399-1.0869-2.9924-1.8968-3.9737-4.5939-3.7651-8.0931.1113-1.867,1.2142-3.0433,1.9396-4.4843,1.7801-3.5361,4.2149-6.2929,8.5523-6.5133.2745-.014.6151-.1031.8003-.2847,1.929-1.8918,4.1996-1.5315,6.4636-.9591,1.1509.2909,1.5923-.0743,1.2832-1.1613-.9125-3.2084-1.1543-6.4445-.598-9.2157Zm170.1271,103.7562c1.0314.015,1.7224-.2305,2.2218-.8591.268-.3373.7939-.645.4961-1.1628-.2245-.3904-.7211-.2905-1.1093-.2588-1.6032.1306-3.2045.2855-4.8061.4361-.2828.0266-.6204.0366-.6894.383-.0896.4493.2568.5745.6059.6599,1.1708.2867,2.3419.5723,3.281.8017Zm35.1259,92.4309c.2245,1.3042.4395,2.725.7244,4.1315.1286.6348.5303,1.1413,1.101,1.4844.1958.1177.4419.2678.6092.0618.119-.1465.1963-.4761.1124-.6157-.9993-1.6638-.7596-3.5705-1.0972-5.3618-.0997-.5292.0052-1.4074-.7152-1.3609-.7901.051-.6121.9429-.7348,1.6607Z"/>
        <path d="m322.6164,110.9774c0,.9216.0644,1.8486-.0128,2.7636-.185,2.1913.2531,4.1371,1.4669,6.0515,1.5624,2.4641,1.5032,5.4083,1.6281,8.2073.3166,7.0981.0092,14.1604-1.7681,21.0929-.4741,1.8491-1.16,3.6127-1.9636,5.3375-1.5788,3.3886-2.4263,7.1369-4.4813,10.2679-5.0547,7.7014-8.8159,16.1399-13.7994,23.8731-.8728,1.3543-1.8145,2.664-2.7209,3.9967-1.0114,1.4871-2.4382,2.4509-4.0809,3.0601-2.476.9182-5.0162,1.6671-7.4736,2.6299-1.8287.7165-3.3117,2.0623-4.8525,3.2426-1.8578,1.4231-3.822,2.2157-6.1856,2.2495-1.3593.0195-2.7036.5437-4.0705.6731-3.8025.3601-6.9489-1.1868-9.3149-3.9799-3.0959-3.6545-5.1727-7.7708-3.9404-12.8383.1032-.4242.0623-.9322-.064-1.3557-.7892-2.6479-1.2611-5.3906-2.0906-8.0078-1.2282-3.8751-1.6259-7.751-1.1686-11.7555.597-5.2281.2846-10.4764.3079-15.7163.0059-1.3168.2055-2.5042,1.0785-3.5368.4939-.5842.8669-1.267.6746-2.0626-.871-3.6023.1478-6.955,1.327-10.2837,1.6765-4.7324,3.9269-9.2045,6.2622-13.6336,5.2899-10.0326,10.7085-19.9909,17.1933-29.3216.4268-.614.9127-1.1864,1.3568-1.7888.9088-1.2329,2.0734-1.6298,3.4784-.9782,1.3802.6401,2.1359.1029,2.95-1.0683,1.5088-2.1708,3.068-4.3181,4.8956-6.2528,1.0516-1.1131,2.2682-1.3222,3.6168-.8365,1.3774.4961,2.0859,2.1804,1.178,2.9856-2.49,2.2083-3.8179,5.1815-5.4285,7.9499-2.0527,3.5282-3.8905,7.182-5.802,10.7917-.1901.359-.6804.848-.0765,1.1733.4162.2242.6549-.3146.9264-.5982,1.6315-1.7042,3.2611-3.4106,4.9162-5.0917.4829-.4905.9794-1.1331,1.5852-1.3104,4.1207-1.2058,4.5137-5.0789,5.8517-8.2013.6742-1.5735,1.4941-2.9685,2.6174-4.2104,1.0393-1.1491,1.9345-1.0572,2.7019.2934.3085.543.4854,1.1673.6756,1.7694.1854.5867.453,1.032,1.1209,1.1576,3.9692.7466,5.5412,3.5003,5.9869,7.1929.069.5713.2267,1.1372.2424,1.7084.031,1.1279.2731,1.9114,1.6916,1.6867.9001-.1426,1.2224.61,1.6349,1.2695,2.2129,3.5378,1.9491,7.4975,1.9297,11.4044Zm-45.2125,33.5105c.0344.4089-.1854.8888.3275,1.0804.4886.1825.931-.0002,1.193-.4381.9453-1.5798,2.0965-3.1509,2.2078-5.0106.2219-3.7069,1.4994-7.0793,2.9757-10.382,1.8775-4.2001,3.9391-8.3176,5.9006-12.4805.2278-.4836.7538-1.171.082-1.5261-.7545-.3988-1.0827.3908-1.3257.9614-.9084,2.1321-2.564,3.039-4.8021,2.9016-1.6073-.0987-2.235.5973-2.0188,2.1538.0396.2849.0864.5761.0689.8607-.2172,3.5341,1.3086,7.3882-1.8984,10.3841-.1891.1766-.1947.5369-.3249.7917-1.7241,3.3729-1.4192,7.1944-2.3856,10.7037Zm32.7625-36.632c-.0281-.5355.0575-1.1279-.5129-1.2215-.5543-.0909-.7352.4477-.8434.9082-.1314.5593-.2851,1.1198-.3438,1.6886-.2193,2.1246-.7884,4.1767-1.2005,6.2611-.8835,4.4687-2.3091,8.7788-3.4878,13.1606-.1552.5769-.6181,1.452.3918,1.7298.8856.2435,1.2146-.5105,1.3847-1.1952.4846-1.9508.8434-3.935,1.3812-5.8701,1.4205-5.1112,2.0015-10.3926,3.2306-15.4617Zm-3.2954,42.1486c-.1115-1.016-.4279-2.0343-1.6224-2.2591-.6131-.1154-.6631.6187-.5347,1.0136.2906.8938-.128,2.2451,1.3034,2.4765.8426.1362.8149-.588.8537-1.2309Zm-18.1289,21.4981c-.0479-.5776-.4441-.6821-.8578-.6533-.8586.0598-1.1547.6479-1.165,1.4154-.0067.498.2892.7267.7789.6605.8434-.1141,1.0267-.8021,1.2438-1.4226Z"/>
        <path d="m169.5826,94.691c-.09-2.1577.119-4.2468.9927-6.2566,1.296-2.9808,4.3432-3.7201,6.6885-1.4636,2.3843,2.294,2.7946,5.4594,3.3449,8.5087.2566,1.4221.414,2.8681,1.152,4.128.6541,1.1167.8721,2.3123.556,3.4932-.7128,2.6633-.2164,5.2351.2206,7.8564.2581,1.5482.5834,3.1842-.6459,4.607-1.9683,2.2783-6.1272,2.3587-8.5201.1003-1.5811-1.4922-2.5264-3.3869-2.592-5.4983-.1609-5.1813-.9401-10.3091-1.1969-15.4751Z"/>
      </g>
    </g>
  </g>
</svg>